<svg id="Layer_1" data-name="Layer 1" xmlns="http://www.w3.org/2000/svg" viewBox="0 0 193.3 140.1">
  <defs>
    <style>
      .cls-1{fill:#231f20}
    </style>
  </defs>
  <g>
    <path class="cls-1" d="M256 248.8h-3.6v.7h10.9v-.7h-3.5v-12.9c.9-1.6 2.8-5.4 6.7-5.4 1.4 0 2.7.8 2.7 3.3v15h-3.6v.7h11v-.7H273v-13.9c0-2.7-1.4-5.2-6.3-5.2-3.3 0-5.6 2.5-6.8 4.7h-.1v-4.7c-.8 1-1.6 1-3.8 1h-3.6v.8h3.6zm-11.1-7.1c0 4-.1 7.6-5.3 7.6s-5.3-3.6-5.3-7.6v-3.6c0-4 .2-7.6 5.3-7.6s5.3 3.6 5.3 7.6zm-15-1.8c0 5.3 3.8 10.2 9.7 10.2s9.7-4.9 9.7-10.2-3.8-10.2-9.7-10.2-9.7 4.9-9.7 10.2m-11.1-18.4a2.3 2.3 0 002.3 2.3 2.3 2.3 0 002.4-2.3 2.4 2.4 0 00-2.4-2.4 2.3 2.3 0 00-2.3 2.4m.4 27.3h-3.7v.7h11.2v-.7H223v-19.1c-.9.9-2.3 1-3.8 1h-3.7v.8h3.7zm-17.8-2.8c0 3 2.1 4.1 5.3 4.1a5.1 5.1 0 005.1-3.5l-.7-.2c-.3.8-1.3 2.9-3.6 2.9s-2.2-.6-2.2-2.4v-15.4h6.3v-.8h-6.3v-6.4h-.6c-.8 4.5-2.5 6.5-7.3 6.4v.8h4zm-7.9-2.9a6.8 6.8 0 01-7 6.2c-5.1 0-5.3-3.6-5.3-7.6v-4c0-4.4 1-7.2 5.5-7.2 1.3 0 3.4.4 3.4 1.4s-1.1.6-1.1 2.4a2 2 0 002.2 2 2.2 2.2 0 002.2-2.3c0-2.9-3.4-4.3-6.6-4.3-5.4 0-10 5-10 11s3.8 9.4 9.7 9.4a7.7 7.7 0 007.7-7zm-25.9-6c0 .1 0 .3-.3.3h-7.6v-1.3c0-2.9.9-5.6 4.1-5.6s3.8 2.7 3.8 5.6zm-7.9 1h11.9c.3 0 .4-.1.4-.4 0-1.9-2.8-8-8.2-8s-8.5 5.8-8.5 10.2c0 6 3.7 10.2 9.1 10.2s7.3-2.9 8.1-7.1h-.8a7.2 7.2 0 01-7.3 6.3c-4.3 0-4.8-3.6-4.7-6.9zm-14.2 10.7h-3.7v.7H153v-.7h-3.7v-33c-.9 1.1-2.4 1.2-3.8 1.2h-3.7v.7h3.7zm-14.4 0h-3.6v.7h11.1v-.7H135v-33c-.9 1.1-2.4 1.2-3.9 1.2h-3.6v.7h3.6zm-11.2-7.1c0 4-.2 7.6-5.3 7.6s-5.3-3.6-5.3-7.6v-3.6c0-4 .1-7.6 5.3-7.6s5.3 3.6 5.3 7.6zm-15-1.8c0 5.3 3.8 10.2 9.7 10.2s9.7-4.9 9.7-10.2-3.8-10.2-9.7-10.2-9.7 4.9-9.7 10.2m-4.9 3.2a6.7 6.7 0 01-6.9 6.2c-5.2 0-5.3-3.6-5.3-7.6v-4c0-4.4 1-7.2 5.5-7.2 1.3 0 3.4.4 3.4 1.4s-1.2.6-1.2 2.4a2.1 2.1 0 002.2 2 2.2 2.2 0 002.2-2.3c0-2.9-3.3-4.3-6.6-4.3-5.4 0-9.9 5-9.9 11s3.8 9.4 9.7 9.4a7.7 7.7 0 007.7-7zM219 124.3c4.8 0 6.4-10.4.5-10.4s-9.2 7.2-9.2 12.6v18.3c0 6.6.3 10.1.9 11.4a1.4 1.4 0 01-.2 1.6c-1.7 1.8-4.6 3.7-10.6 3.7-8.9 0-11.5-4.9-11.5-13.2v-28.4c0-.2-.1-6 4.4-6 1.8 0 1.8-1.2-.1-1.2h-12.1a.8.8 0 01-.1-1.5c5.4 0 17.9-.9 23.4-.9s5.7 4.4 4.7 10.7c-.1.6.5 1.2.9.2 1.7-6.3 6.8-11 14.6-11.3 11.8-.5 16.1 4.9 16.1 12.3 0 4.3-2.7 10.8-12 10.8s-12-8.8-9.7-8.8" transform="translate(-83.4 -109.9)"/>
    <path class="cls-1" d="M254.3 138.1c0 2.6.2 4.4 6.4 4.4h2c1 0 .8 1.6 0 1.6h-16.9c-.4.2-.4.8.5.8 5.4 0 7.7 5 7.7 10.6v27.1c0 5.7.2 7.9 2.1 7.9s3-1.5 3-8.1v-8c0-1.2 1.5-1.2 1.5 0v8c0 7.3-1.6 12.9-13.4 13s-15.9-4.4-15.9-17.5v-24.2a9.8 9.8 0 00-10.2-9.6v-1.6c11.7 0 23.3.1 31.6-19.4.6-1.1 1.6-1.2 1.6 0zM126.3 163h25.3l-12.3-31.9zm-4.4-52.6h39.7c3.4 0 3.5.8 4.8 4.3l26.2 66.2c2.3 6.1-1.5 10.9-10.9 10.9-1.8 0-2 1.4-.2 1.4h23.9a1 1 0 110 1.9h-54.6c-1.5 0-1.2-1.8.4-1.8 6.6 0 10.6-3.9 6.6-14.2l-5.5-14.3h-26.7l-5.7 13.4c-4 9.3.6 15.1 10.9 15.1h3.2c1.2 0 1 1.8-.1 1.8h-34a.9.9 0 11.1-1.8h1.8c7.2 0 11.7-5.1 15.1-12l21.5-52.4c-3.1-7.8-6.9-16.7-17-16.8s-21.7 5.1-22.3 12.1a5.3 5.3 0 005 6c3.1 0 6-2.9 5.8-5 7-.5 11.3 6.6 11.3 13.3 0 9.1-7.5 15.8-16.6 15.8s-16-6.4-16-17.6c0-13.5 17.1-26.3 33.3-26.3" transform="translate(-83.4 -109.9)"/>
  </g>
</svg>
