<svg width="282px" height="57px" viewBox="0 0 282 57" version="1.1" xmlns="http://www.w3.org/2000/svg">
  <title>
    Group 3
  </title>
  <g stroke="none" stroke-width="1" fill="none" fill-rule="evenodd">
    <g transform="translate(-369 -144)" fill="#FFFDFF" fill-rule="nonzero">
      <g transform="translate(369 144)">
        <path d="M2.95433333 54.033c.077-.033.099-.22.022-.275l-.396-.033c-.3696-.0308-.41340444-.14784-.41760237-.8072338L2.16233333 50.447c0-.297 0-.319.187-.319h1.177c.121-.044.198-.352.077-.462h-1.254c-.16622222 0-.18469135-.0086914-.18674348-.2192154L2.16233333 49.039c0-.55.044-1.353.242-1.859.165-.396.44-.605.781-.605.363 0 .671.242.88.484.077.088.143.132.264.132.209 0 .418-.176.418-.396 0-.396-.495-.66-1.078-.66-1.089 0-1.705.77-1.98 1.397-.264.616-.341 1.298-.341 1.936 0 .11-.077.176-.165.22l-.473.231c-.044.066-.033.165.033.209h.385c.19555556 0 .21728395.0173827.21969822.2298381L1.34833333 52.768c0 .792-.011.902-.418.957l-.253.033c-.077.055-.055.242.022.275.33-.022.66-.033 1.056-.033.385 0 .704.011 1.199.033zM10.485 54.264c.374-.209 1.012-.319 1.441-.407.088-.044.077-.264.011-.319-.154.033-.297.055-.429.055-.2874667 0-.3353778-.2874667-.3404883-1.0323247L11.167 50.546c0-.407.011-.748.033-.957-.011-.044-.044-.066-.099-.077-.242.11-.847.187-1.287.198-.088.044-.088.198-.011.242l.143.055c.33.132.407.154.407.869v1.804c0 .341-.077.506-.22.638-.242.209-.594.33-.891.33-.836 0-1.023-.506-1.023-1.265v-1.837c0-.539.011-.77.033-.957-.011-.044-.044-.066-.11-.077-.242.088-.671.187-1.177.198-.077.033-.088.187-.022.242l.132.055c.33.143.33.242.33.935v1.837c0 .891.363 1.375 1.331 1.375.649 0 1.188-.363 1.518-.572.066 0 .099.055.099.154v.451c.022.044.077.077.132.077zm7.0356667-.231c.077-.033.099-.22.022-.275l-.264-.033c-.396-.055-.418-.165-.418-.957v-5.203c0-.484.022-1.034.033-1.364-.022-.044-.066-.066-.11-.066-.396.209-.913.374-1.188.462-.055.033-.055.187 0 .22l.11.066c.3046154.1827692.3374201.2530651.3406645.7732544L16.0466667 52.768c0 .792-.011.902-.418.957l-.253.033c-.077.055-.055.242.022.275.33-.022.66-.033 1.056-.033.385 0 .704.011 1.067.033zm5.6936666 0c.077-.033.099-.22.022-.275l-.264-.033c-.3696-.0513333-.4134044-.1505778-.4176023-.8075076L22.5543333 47.565c0-.484.022-1.034.033-1.364-.022-.044-.066-.066-.11-.066-.396.209-.913.374-1.188.462-.055.033-.055.187 0 .22l.11.066c.33.198.341.264.341.913v4.972c0 .792-.011.902-.418.957l-.253.033c-.077.055-.055.242.022.275.33-.022.66-.033 1.056-.033.385 0 .704.011 1.067.033zm11.5523334 2.805c.077-.033.099-.22.022-.275l-.429-.055c-.396-.055-.418-.154-.418-.935v-1.155c0-.231.055-.286.154-.308.099.022.407.044.605.044 1.562 0 2.684-1.1 2.684-2.629 0-1.111-.715-2.013-1.826-2.013-.704 0-1.397.451-1.54.517-.077 0-.099-.066-.099-.143 0-.143.022-.308.044-.506-.022-.055-.066-.077-.132-.077-.286.209-.803.473-1.089.594-.055.033-.055.154-.011.198l.099.066c.2673.1782.29403.24057.296703.564003l.000297 4.847997c0 .792-.011.902-.418.957l-.231.033c-.077.055-.055.242.022.275.308-.022.638-.033 1.034-.033.385 0 .704.011 1.232.033zm.297-3.047c-.231 0-.572-.077-.792-.242-.22-.176-.33-.308-.33-.66v-1.892c0-.363.033-.528.132-.649.121-.132.462-.308.935-.308.99 0 1.485.891 1.485 1.771 0 1.144-.528 1.98-1.43 1.98zm8.3226666.363c1.375 0 2.321-.99 2.321-2.365 0-1.353-1.001-2.277-2.233-2.277-1.298 0-2.343.99-2.343 2.376 0 1.375.99 2.266 2.255 2.266zm.11-.33c-.968 0-1.419-1.078-1.419-2.079 0-1.21.539-1.903 1.265-1.903 1.045 0 1.419 1.188 1.419 2.123 0 .847-.297 1.859-1.265 1.859zm8.2786667.209c.077-.033.099-.22.022-.275l-.396-.033c-.3901333-.0308-.4353067-.14784-.4395959-.8072338L50.961 51.272c0-.374.033-.693.143-.847.088-.121.22-.22.396-.22.154 0 .319.066.484.176.077.044.132.077.242.077.176 0 .473-.143.473-.506 0-.264-.22-.44-.495-.44-.407 0-.825.341-1.21.66-.022-.011-.033-.044-.033-.099v-.638c0-.044-.033-.066-.088-.077-.275.165-.858.451-1.111.539-.055.033-.055.154-.011.198l.099.066c.297.198.297.253.297.682v1.925c0 .792-.011.891-.418.957l-.209.033c-.077.055-.055.242.022.275.286-.022.616-.033 1.012-.033.385 0 .704.011 1.221.033zm6.1226667.121c.561 0 .957-.275 1.155-.506.022-.066-.022-.187-.11-.187-.033 0-.176.121-.275.154-.088.033-.187.055-.297.055-.726 0-.803-.583-.803-1.221v-2.057c0-.231.011-.264.198-.264h1.243c.099-.066.121-.363-.011-.462h-1.221c-.187 0-.198-.011-.198-.209v-.495c-.044-.077-.176-.077-.231-.055-.11.22-.319.517-.462.649-.11.099-.385.242-.704.341-.044.066-.033.187.033.231h.308c.22 0 .231.022.231.319v2.519c0 .66.198 1.188 1.144 1.188zm6.8926666-.121c.077-.033.099-.22.022-.275l-.396-.033c-.3696-.0308-.4134044-.14784-.4176023-.8072338L63.9983333 50.447c0-.297 0-.319.187-.319h1.177c.121-.044.198-.352.077-.462h-1.254c-.1662222 0-.1846913-.0086914-.1867435-.2192154L63.9983333 49.039c0-.55.044-1.353.242-1.859.165-.396.44-.605.781-.605.363 0 .671.242.88.484.077.088.143.132.264.132.209 0 .418-.176.418-.396 0-.396-.495-.66-1.078-.66-1.089 0-1.705.77-1.98 1.397-.264.616-.341 1.298-.341 1.936 0 .11-.077.176-.165.22l-.473.231c-.044.066-.033.165.033.209h.385c.1955556 0 .217284.0173827.2196983.2298381L63.1843333 52.768c0 .792-.011.902-.418.957l-.253.033c-.077.055-.055.242.022.275.33-.022.66-.033 1.056-.033.385 0 .704.011 1.199.033zm6.1556667.121c1.375 0 2.321-.99 2.321-2.365 0-1.353-1.001-2.277-2.233-2.277-1.298 0-2.343.99-2.343 2.376 0 1.375.99 2.266 2.255 2.266zm.11-.33c-.968 0-1.419-1.078-1.419-2.079 0-1.21.539-1.903 1.265-1.903 1.045 0 1.419 1.188 1.419 2.123 0 .847-.297 1.859-1.265 1.859zm8.0146667.209c.077-.033.099-.22.022-.275l-.264-.033c-.396-.055-.418-.165-.418-.957v-5.203c0-.484.022-1.034.033-1.364-.022-.044-.066-.066-.11-.066-.396.209-.913.374-1.188.462-.055.033-.055.187 0 .22l.11.066c.3046154.1827692.3374201.2530651.3406645.7732544L77.5966667 52.768c0 .792-.011.902-.418.957l-.253.033c-.077.055-.055.242.022.275.33-.022.66-.033 1.056-.033.385 0 .704.011 1.067.033zm4.6596666-5.753c.308 0 .583-.176.583-.572 0-.308-.22-.572-.55-.572-.33 0-.594.231-.594.594 0 .297.22.55.561.55zm1.111 5.753c.077-.033.099-.22.022-.275l-.231-.033c-.3696-.0513333-.4134044-.1505778-.4176023-.8075076L84.2143333 50.788c0-.451.022-.979.044-1.364-.011-.044-.055-.066-.11-.066-.253.165-.88.451-1.133.539-.055.033-.055.154-.011.198l.099.066c.2673.1782.29403.24057.296703.564003l.000297 2.042997c0 .792-.011.902-.418.957l-.231.033c-.077.055-.055.242.022.275.308-.022.638-.033 1.034-.033.385 0 .704.011 1.034.033zm5.9246667.121c1.375 0 2.321-.99 2.321-2.365 0-1.353-1.001-2.277-2.233-2.277-1.298 0-2.343.99-2.343 2.376 0 1.375.99 2.266 2.255 2.266zm.11-.33c-.968 0-1.419-1.078-1.419-2.079 0-1.21.539-1.903 1.265-1.903 1.045 0 1.419 1.188 1.419 2.123 0 .847-.297 1.859-1.265 1.859zm12.707333-5.544c.308 0 .583-.176.583-.572 0-.308-.22-.572-.55-.572-.33 0-.594.231-.594.594 0 .297.22.55.561.55zm1.111 5.753c.077-.033.099-.22.022-.275l-.231-.033c-.3696-.0513333-.413404-.1505778-.417602-.8075076L104.067333 50.788c0-.451.022-.979.044-1.364-.011-.044-.055-.066-.11-.066-.253.165-.88.451-1.133.539-.055.033-.055.154-.011.198l.099.066c.2673.1782.29403.24057.296703.564003l.000297 2.042997c0 .792-.011.902-.418.957l-.231.033c-.077.055-.055.242.022.275.308-.022.638-.033 1.034-.033.385 0 .704.011 1.034.033zm4.923667.121c.814 0 1.584-.418 1.584-1.254 0-.781-.539-1.155-1.122-1.485-.385-.22-.847-.462-.847-.913 0-.396.275-.671.704-.671.451 0 .781.319.968.803.055.066.22.044.264-.033 0-.297-.077-.649-.176-.891-.099-.088-.506-.198-.968-.198-.836 0-1.496.451-1.496 1.254 0 .605.451.99 1.089 1.353.407.231.847.506.847 1.012 0 .473-.341.704-.737.704-.627 0-.979-.528-1.166-1.133-.055-.066-.198-.055-.253.011-.022.363.044.902.132 1.111.275.22.66.33 1.177.33zm14.225333 0c.539 0 .924-.429.924-.484 0-.077-.033-.143-.077-.143-.033 0-.088.044-.143.077-.066.033-.165.066-.275.066-.429 0-.528-.451-.506-.957l.066-1.914c.033-.825-.352-1.287-1.144-1.287-.803 0-2.046.781-2.046 1.353 0 .099.055.154.154.154.165 0 .462-.077.627-.209.088-.066.099-.198.11-.374.022-.341.396-.495.704-.495.682 0 .814.55.803.957l-.011.506c0 .165-.022.264-.187.319l-1.309.473c-.704.253-.913.506-.913.935 0 .308.132.583.341.77.187.165.451.253.77.253.308 0 .55-.143.792-.275.22-.121.352-.22.429-.22.066 0 .132.088.176.154.187.242.451.341.715.341zm-1.683-.495c-.561 0-.693-.473-.693-.66 0-.429.319-.594.968-.814.198-.066.385-.11.451-.11s.11.022.11.143l-.022.649c-.011.231-.011.385-.143.517-.11.11-.451.275-.671.275zm7.882667.517c.044 0 .088-.011.11-.044.143-.374.253-.627.363-.902.176-.451.858-2.046 1.012-2.343.319-.616.418-.902.803-.957l.165-.022c.066-.066.055-.231-.022-.275-.308.022-.495.033-.77.033-.209 0-.484-.011-.825-.033-.077.044-.088.198-.022.275l.253.033c.132.022.198.066.198.165 0 .066-.044.297-.198.682-.11.286-.484 1.243-.627 1.617-.088.231-.165.385-.209.418-.033-.033-.077-.132-.176-.352-.253-.572-.572-1.342-.825-2.101-.11-.33-.099-.385.242-.44l.132-.022c.077-.055.066-.231-.011-.275-.374.022-.594.033-.891.033-.374 0-.759-.011-1.034-.033-.088.033-.099.187-.033.275l.22.033c.396.055.495.407.66.814l.924 2.233c.165.407.33.836.418 1.144.033.033.088.044.143.044zm8.883667-.022c.539 0 .924-.429.924-.484 0-.077-.033-.143-.077-.143-.033 0-.088.044-.143.077-.066.033-.165.066-.275.066-.429 0-.528-.451-.506-.957l.066-1.914c.033-.825-.352-1.287-1.144-1.287-.803 0-2.046.781-2.046 1.353 0 .099.055.154.154.154.165 0 .462-.077.627-.209.088-.066.099-.198.11-.374.022-.341.396-.495.704-.495.682 0 .814.55.803.957l-.011.506c0 .165-.022.264-.187.319l-1.309.473c-.704.253-.913.506-.913.935 0 .308.132.583.341.77.187.165.451.253.77.253.308 0 .55-.143.792-.275.22-.121.352-.22.429-.22.066 0 .132.088.176.154.187.242.451.341.715.341zm-1.683-.495c-.561 0-.693-.473-.693-.66 0-.429.319-.594.968-.814.198-.066.385-.11.451-.11s.11.022.11.143l-.022.649c-.011.231-.011.385-.143.517-.11.11-.451.275-.671.275zm6.903666-5.379c.308 0 .583-.176.583-.572 0-.308-.22-.572-.55-.572-.33 0-.594.231-.594.594 0 .297.22.55.561.55zm1.111 5.753c.077-.033.099-.22.022-.275l-.231-.033c-.3696-.0513333-.413404-.1505778-.417602-.8075076L144.631333 50.788c0-.451.022-.979.044-1.364-.011-.044-.055-.066-.11-.066-.253.165-.88.451-1.133.539-.055.033-.055.154-.011.198l.099.066c.2673.1782.29403.24057.296703.564003l.000297 2.042997c0 .792-.011.902-.418.957l-.231.033c-.077.055-.055.242.022.275.308-.022.638-.033 1.034-.033.385 0 .704.011 1.034.033zm5.726667 0c.077-.033.099-.22.022-.275l-.264-.033c-.3696-.0513333-.413404-.1505778-.417602-.8075076L150.325 47.565c0-.484.022-1.034.033-1.364-.022-.044-.066-.066-.11-.066-.396.209-.913.374-1.188.462-.055.033-.055.187 0 .22l.11.066c.33.198.341.264.341.913v4.972c0 .792-.011.902-.418.957l-.253.033c-.077.055-.055.242.022.275.33-.022.66-.033 1.056-.033.385 0 .704.011 1.067.033zm6.859667.121c.539 0 .924-.429.924-.484 0-.077-.033-.143-.077-.143-.033 0-.088.044-.143.077-.066.033-.165.066-.275.066-.429 0-.528-.451-.506-.957l.066-1.914c.033-.825-.352-1.287-1.144-1.287-.803 0-2.046.781-2.046 1.353 0 .099.055.154.154.154.165 0 .462-.077.627-.209.088-.066.099-.198.11-.374.022-.341.396-.495.704-.495.682 0 .814.55.803.957l-.011.506c0 .165-.022.264-.187.319l-1.309.473c-.704.253-.913.506-.913.935 0 .308.132.583.341.77.187.165.451.253.77.253.308 0 .55-.143.792-.275.22-.121.352-.22.429-.22.066 0 .132.088.176.154.187.242.451.341.715.341zm-1.683-.495c-.561 0-.693-.473-.693-.66 0-.429.319-.594.968-.814.198-.066.385-.11.451-.11s.11.022.11.143l-.022.649c-.011.231-.011.385-.143.517-.11.11-.451.275-.671.275zm8.080666.495c1.474 0 2.53-1.023 2.53-2.486 0-1.21-.847-2.156-2.101-2.156-.539 0-.979.198-1.265.363-.066 0-.11-.044-.11-.231v-2.079c0-.484.022-.979.044-1.364-.022-.044-.066-.066-.11-.066-.418.22-.946.363-1.199.462-.055.033-.055.187 0 .22l.11.066c.33.198.341.264.341.913v5.247c0 .572-.011.781-.022.935.022.044.066.066.11.066.022 0 .033 0 .044-.011.055-.077.143-.165.231-.165.088 0 .231.066.462.143.22.066.528.143.935.143zm.165-.33c-.352 0-.649-.132-.836-.363-.187-.231-.275-.572-.275-.957v-1.716c0-.429.022-.55.132-.627.154-.099.418-.176.748-.176 1.089 0 1.672.88 1.672 2.013 0 .946-.407 1.826-1.441 1.826zm8.168667.209c.077-.033.099-.22.022-.275l-.264-.033c-.3696-.0513333-.413404-.1505778-.417602-.8075076L171.916 47.565c0-.484.022-1.034.033-1.364-.022-.044-.066-.066-.11-.066-.396.209-.913.374-1.188.462-.055.033-.055.187 0 .22l.11.066c.33.198.341.264.341.913v4.972c0 .792-.011.902-.418.957l-.253.033c-.077.055-.055.242.022.275.33-.022.66-.033 1.056-.033.385 0 .704.011 1.067.033zm5.693667.121c.572 0 1.364-.275 1.727-1.023-.011-.099-.088-.165-.198-.132-.341.429-.649.539-1.012.539-1.177 0-1.826-.946-1.826-2.057 0-.275.011-.297.297-.297h2.035c.462 0 .616-.011.649-.077.022-.044.044-.132.044-.286 0-.66-.616-1.309-1.562-1.309-1.32 0-2.211 1.133-2.211 2.486 0 .484.132 1.001.462 1.43.319.418.88.726 1.595.726zm-.164175-3.3006655l-.946825.0006655c-.077 0-.077-.033-.077-.055.011-.363.572-.957 1.221-.957.638 0 .847.385.847.693 0 .143-.033.187-.066.209-.081715.0612857-.296215.103602-.978175.1093345zM192.902 54.264c.374-.209 1.012-.319 1.441-.407.088-.044.077-.264.011-.319-.154.033-.297.055-.429.055-.287467 0-.335378-.2874667-.340488-1.0323247L193.584 50.546c0-.407.011-.748.033-.957-.011-.044-.044-.066-.099-.077-.242.11-.847.187-1.287.198-.088.044-.088.198-.011.242l.143.055c.33.132.407.154.407.869v1.804c0 .341-.077.506-.22.638-.242.209-.594.33-.891.33-.836 0-1.023-.506-1.023-1.265v-1.837c0-.539.011-.77.033-.957-.011-.044-.044-.066-.11-.077-.242.088-.671.187-1.177.198-.077.033-.088.187-.022.242l.132.055c.33.143.33.242.33.935v1.837c0 .891.363 1.375 1.331 1.375.649 0 1.188-.363 1.518-.572.066 0 .099.055.099.154v.451c.022.044.077.077.132.077zm7.167667 2.574c.077-.033.099-.22.022-.275l-.429-.055c-.396-.055-.418-.154-.418-.935v-1.155c0-.231.055-.286.154-.308.099.022.407.044.605.044 1.562 0 2.684-1.1 2.684-2.629 0-1.111-.715-2.013-1.826-2.013-.704 0-1.397.451-1.54.517-.077 0-.099-.066-.099-.143 0-.143.022-.308.044-.506-.022-.055-.066-.077-.132-.077-.286.209-.803.473-1.089.594-.055.033-.055.154-.011.198l.099.066c.2673.1782.29403.24057.296703.564003l.000297 4.847997c0 .792-.011.902-.418.957l-.231.033c-.077.055-.055.242.022.275.308-.022.638-.033 1.034-.033.385 0 .704.011 1.232.033zm.297-3.047c-.231 0-.572-.077-.792-.242-.22-.176-.33-.308-.33-.66v-1.892c0-.363.033-.528.132-.649.121-.132.462-.308.935-.308.99 0 1.485.891 1.485 1.771 0 1.144-.528 1.98-1.43 1.98zm8.322666.363c1.375 0 2.321-.99 2.321-2.365 0-1.353-1.001-2.277-2.233-2.277-1.298 0-2.343.99-2.343 2.376 0 1.375.99 2.266 2.255 2.266zm.11-.33c-.968 0-1.419-1.078-1.419-2.079 0-1.21.539-1.903 1.265-1.903 1.045 0 1.419 1.188 1.419 2.123 0 .847-.297 1.859-1.265 1.859zm11.050667.209c.077-.033.099-.22.022-.275l-.242-.033c-.3696-.0513333-.413404-.1505778-.417602-.8075076L219.212 50.876c0-.737-.374-1.364-1.287-1.364-.561 0-1.078.275-1.54.561-.077 0-.121-.055-.121-.121 0-.099 0-.264.022-.517-.022-.055-.077-.077-.121-.077-.22.165-.847.451-1.1.539-.055.033-.055.154-.011.198l.099.066c.297.198.297.253.297.682v1.925c0 .792-.011.902-.418.957l-.231.033c-.077.055-.055.242.022.275.308-.022.638-.033 1.034-.033.385 0 .704.011 1.001.033.077-.033.099-.22.022-.275l-.198-.033c-.3696-.0616-.413404-.1519467-.417602-.8076444L216.264 51.085c0-.319.022-.473.165-.66.154-.209.517-.385.935-.385.748 0 1.034.462 1.034 1.089v1.639c0 .792-.011.891-.418.957l-.209.033c-.077.055-.055.242.022.275.297-.022.627-.033 1.023-.033.385 0 .704.011 1.034.033zm11.706333 0c.077-.033.099-.22.022-.275l-.396-.033c-.390133-.0308-.435306-.14784-.439596-.8072338L230.742333 51.272c0-.374.033-.693.143-.847.088-.121.22-.22.396-.22.154 0 .319.066.484.176.077.044.132.077.242.077.176 0 .473-.143.473-.506 0-.264-.22-.44-.495-.44-.407 0-.825.341-1.21.66-.022-.011-.033-.044-.033-.099v-.638c0-.044-.033-.066-.088-.077-.275.165-.858.451-1.111.539-.055.033-.055.154-.011.198l.099.066c.2673.1782.29403.24057.296703.564003l.000297 2.042997c0 .792-.011.891-.418.957l-.209.033c-.077.055-.055.242.022.275.286-.022.616-.033 1.012-.033.385 0 .704.011 1.221.033zm6.254667.121c.572 0 1.364-.275 1.727-1.023-.011-.099-.088-.165-.198-.132-.341.429-.649.539-1.012.539-1.177 0-1.826-.946-1.826-2.057 0-.275.011-.297.297-.297h2.035c.462 0 .616-.011.649-.077.022-.044.044-.132.044-.286 0-.66-.616-1.309-1.562-1.309-1.32 0-2.211 1.133-2.211 2.486 0 .484.132 1.001.462 1.43.319.418.88.726 1.595.726zm-.164174-3.3006655L236.7 50.854c-.077 0-.077-.033-.077-.055.011-.363.572-.957 1.221-.957.638 0 .847.385.847.693 0 .143-.033.187-.066.209-.081714.0612857-.296214.103602-.978174.1093345zM248.069667 56.838c.077-.033.099-.22.022-.275l-.319-.055c-.385-.066-.418-.143-.418-.935v-4.631c0-.693.022-1.067.088-1.331-.022-.055-.066-.099-.121-.099-.121.11-.209.187-.297.187-.099 0-.22-.033-.385-.077-.154-.044-.55-.11-.913-.11-1.419 0-2.64.891-2.64 2.486 0 .858.594 2.156 2.233 2.156.429 0 .836-.11 1.122-.275.088 0 .099.055.099.264v1.43c0 .792-.011.913-.418.957l-.341.033c-.077.055-.055.242.022.275.418-.022.748-.033 1.144-.033.385 0 .704.011 1.122.033zm-2.321-3.124c-1.034 0-1.738-.858-1.738-2.068 0-1.034.605-1.793 1.441-1.793.473 0 .792.231.946.506.088.165.143.528.143 1.1v1.639c0 .242-.022.374-.077.44s-.231.176-.715.176zm9.411666.55c.374-.209 1.012-.319 1.441-.407.088-.044.077-.264.011-.319-.154.033-.297.055-.429.055-.287466 0-.335377-.2874667-.340488-1.0323247L255.842333 50.546c0-.407.011-.748.033-.957-.011-.044-.044-.066-.099-.077-.242.11-.847.187-1.287.198-.088.044-.088.198-.011.242l.143.055c.33.132.407.154.407.869v1.804c0 .341-.077.506-.22.638-.242.209-.594.33-.891.33-.836 0-1.023-.506-1.023-1.265v-1.837c0-.539.011-.77.033-.957-.011-.044-.044-.066-.11-.077-.242.088-.671.187-1.177.198-.077.033-.088.187-.022.242l.132.055c.306429.1327857.328317.2276327.32988.7953593l.00012 1.9766407c0 .891.363 1.375 1.331 1.375.649 0 1.188-.363 1.518-.572.066 0 .099.055.099.154v.451c.022.044.077.077.132.077zm7.035667-.11c.572 0 1.364-.275 1.727-1.023-.011-.099-.088-.165-.198-.132-.341.429-.649.539-1.012.539-1.177 0-1.826-.946-1.826-2.057 0-.275.011-.297.297-.297h2.035c.462 0 .616-.011.649-.077.022-.044.044-.132.044-.286 0-.66-.616-1.309-1.562-1.309-1.32 0-2.211 1.133-2.211 2.486 0 .484.132 1.001.462 1.43.319.418.88.726 1.595.726zm-.164174-3.3006655L261.085 50.854c-.077 0-.077-.033-.077-.055.011-.363.572-.957 1.221-.957.638 0 .847.385.847.693 0 .143-.033.187-.066.209-.081714.0612857-.296214.103602-.978174.1093345zM268.725667 54.154c.814 0 1.584-.418 1.584-1.254 0-.781-.539-1.155-1.122-1.485-.385-.22-.847-.462-.847-.913 0-.396.275-.671.704-.671.451 0 .781.319.968.803.055.066.22.044.264-.033 0-.297-.077-.649-.176-.891-.099-.088-.506-.198-.968-.198-.836 0-1.496.451-1.496 1.254 0 .605.451.99 1.089 1.353.407.231.847.506.847 1.012 0 .473-.341.704-.737.704-.627 0-.979-.528-1.166-1.133-.055-.066-.198-.055-.253.011-.022.363.044.902.132 1.111.275.22.66.33 1.177.33zm7.002666 0c.561 0 .957-.275 1.155-.506.022-.066-.022-.187-.11-.187-.033 0-.176.121-.275.154-.088.033-.187.055-.297.055-.726 0-.803-.583-.803-1.221v-2.057c0-.231.011-.264.198-.264h1.243c.099-.066.121-.363-.011-.462h-1.221c-.187 0-.198-.011-.198-.209v-.495c-.044-.077-.176-.077-.231-.055-.11.22-.319.517-.462.649-.11.099-.385.242-.704.341-.044.066-.033.187.033.231h.308c.22 0 .231.022.231.319v2.519c0 .66.198 1.188 1.144 1.188zm5.616667 0c.374 0 .616-.253.616-.605s-.242-.649-.616-.649c-.352 0-.616.275-.616.649s.297.605.616.605zM30.8613333 13.252c.756 0 2.448-1.098 3.456-2.592.036-.216-.072-.324-.252-.324-.594.684-1.782 1.62-2.052 1.62-.144 0-.234-.108-.126-.45l1.62-4.734h1.962c.234-.126.342-.486.216-.666h-1.962l.522-1.764c-.144-.18-.504-.216-.684-.108l-1.008 1.782-1.44.252c-.18.072-.234.324-.198.504h1.404l-1.692 4.968c-.18.54-.252.792-.252 1.026 0 .216.234.486.486.486zm12.3786667 0c.234 0 .72-.108 1.314-.702.468-.468.828-.864 1.17-1.476.648-1.152 1.404-2.97 1.404-4.212 0-.63-.288-1.206-1.08-1.206-.486 0-1.062.234-1.71.702-.648.468-1.584 1.188-2.844 2.97l-.036-.036 1.854-5.382c.36-1.026.936-2.664 1.296-3.672L44.536.13c-.63.036-1.818.288-2.106.414-.09.072-.09.144-.054.234l.378.252c.288.198.198.45-.198 1.638l-3.42 10.116c-.144.414.324.468.522.468.162 0 .252-.072.324-.216.468-.918 1.368-2.664 2.178-3.744.936-1.224 1.53-1.818 2.286-2.394.342-.27.72-.486.972-.486s.378.198.378.54c0 .99-.81 3.474-1.296 4.644-.27.63-.45.9-.72.9-.126 0-.324-.126-.468-.234-.09-.072-.18-.108-.252-.108-.234 0-.486.27-.486.576 0 .144.072.522.666.522zm12.7926667 0c.99 0 2.268-1.008 3.024-2.016 0-.144-.126-.234-.252-.234-1.026.9-1.548 1.206-1.854 1.206-.144 0-.234-.108-.126-.414.576-1.638 2.142-5.616 2.412-6.282-.108-.234-.576-.414-.882-.27l-.504 1.152c-.09-.18-.288-.342-.36-.378-.108-.054-.234-.108-.432-.108-.468 0-.918.126-1.62.522-.738.414-1.512 1.134-2.376 2.322-1.188 1.638-1.584 3.078-1.584 3.492 0 .504.288 1.008.792 1.008.846 0 2.682-1.242 3.96-2.826l.054.018-.594 1.62c-.144.414-.18.576-.18.702 0 .144.108.486.522.486zm-2.79-.954c-.162 0-.27-.126-.27-.342 0-1.278 1.098-3.636 2.25-4.662.558-.504.846-.702 1.278-.702.468 0 .774.306.9.648-.288 1.062-1.044 2.61-2.412 3.888-1.026.936-1.566 1.17-1.746 1.17zm15.5106666.954c.99 0 2.412-.864 3.096-2.016 0-.144-.036-.288-.288-.252-.522.63-1.386 1.224-1.692 1.224-.126 0-.108-.162-.036-.342.054-.144 1.35-3.078 1.674-3.978.144-.414.288-.972.288-1.26 0-.594-.306-.972-1.008-.972-1.35 0-3.132 1.98-4.41 3.924l-.054-.036 1.224-3.15c.162-.414-.036-.738-.468-.738-.9 0-1.998.738-2.682 1.674-.018.144.072.27.216.27.594-.522 1.224-.9 1.638-.9.144 0 .144.18.054.414-.0406451.11380645-.4520791 1.23351509-.8993958 2.44891115l-.1929276.52408875c-.4829294 1.3115995-.9521282 2.5837743-.9956766 2.6970001-.162.414.324.468.522.468.162 0 .234-.054.324-.216 1.062-1.98 1.8-3.384 2.754-4.572.99-1.242 2.052-2.142 2.484-2.142.27 0 .288.216.288.432 0 .36-.234.99-.378 1.314-.414.9-1.08 2.664-1.458 3.546-.378.9-.432 1.026-.432 1.188 0 .216.27.45.432.45zm12.9546667 0c.288 0 1.188-.36 1.818-1.71 0-.144-.072-.216-.234-.216-.504.612-.846.846-1.08.846-.18 0-.36-.198-.576-.594-.198-.378-.522-1.17-.666-1.692-.036-.108-.072-.27.054-.342 1.152-.198 2.034-.81 2.88-1.584.666-.612.738-1.098.738-1.314 0-.378-.252-.99-1.296-.99-.774 0-1.44.324-1.944.684-.72.54-1.314 1.152-1.836 1.854h-.036l1.854-5.328c.54-1.53.738-2.142.882-2.646l-.108-.09c-.774.144-1.656.396-2.196.648-.09.09-.072.198.036.27l.324.162c.306.144.288.378-.126 1.638l-3.294 9.936c-.144.414.378.468.576.468.162 0 .234-.072.306-.234l.936-2.286c.216-.54.306-.63.666-.72.324-.072.522.126.666.594.162.486.612 1.53.828 1.926.288.504.504.72.828.72zm-2.43-3.942c.234-.522.99-1.404 1.656-1.962.612-.522 1.278-.918 1.746-.918.414 0 .576.252.576.468 0 .378-.396 1.008-1.152 1.512-1.26.828-2.268 1.134-2.646 1.17-.234.036-.252-.09-.18-.27zm10.1646667 3.942c.684 0 1.35-.234 1.818-.648.666-.576.918-1.242.936-1.728.036-.792-.234-1.242-.684-1.998-.522-.882-.612-1.26-.612-1.638 0-.27.216-.72.738-.72.558 0 .792.27 1.098.576.108.144.216.18.342.144.144-.072.324-.27.324-.558 0-.45-.414-1.026-1.08-1.026-.234 0-.81.144-1.332.594-.774.666-1.08 1.188-1.08 1.89 0 .306.162.918.63 1.674.45.72.666 1.278.666 1.584 0 .576-.432 1.026-.864 1.026-.468 0-1.008-.45-1.242-.72-.144-.126-.342-.126-.486 0-.198.216-.27.414-.27.594 0 .414.414.954 1.098.954zM102.53 17.842c1.062 0 1.89-.72 2.16-.972.36-.36.954-1.278 1.422-2.898.576-1.98 1.062-3.708 1.602-5.724.216-.792.36-1.368.468-1.674h2.232c.27-.198.306-.468.18-.666h-2.25c.486-1.71.846-2.988 1.674-4.194.414-.612.9-.972 1.296-.972.45 0 .954.324 1.008 1.314.018.126.09.288.252.288.288 0 .774-.558.774-1.026 0-.72-.72-1.188-1.386-1.188-1.044 0-1.98.432-2.88 1.494-1.062 1.26-1.548 2.664-2.016 4.284h-1.548c-.234.162-.306.504-.126.666h1.494c-.864 2.934-1.494 6.03-2.322 8.874-.414 1.386-.792 1.512-1.152 1.512-.396 0-.936-.288-1.368-.738-.108-.126-.27-.18-.414-.072-.198.144-.414.45-.414.81 0 .27.342.882 1.314.882zm12.882667-4.59c.486 0 1.458-.09 2.574-1.242 1.332-1.368 1.854-3.096 1.908-4.086.072-1.314-.558-2.268-1.836-2.268-.738 0-1.548.27-2.484 1.17-1.224 1.17-1.89 2.916-1.962 4.032-.108 1.548.648 2.394 1.8 2.394zm.144-.54c-.522 0-.774-.522-.738-1.152.054-.954.756-3.096 1.8-4.5.522-.702.954-.864 1.314-.864.63 0 .738.63.72 1.188-.036.954-.882 3.33-1.674 4.392-.576.774-1.026.936-1.422.936zm9.272666.54c.144 0 .234-.072.306-.216.954-2.07 1.962-4.266 3.06-5.67.27-.36.468-.54.63-.54.18 0 .288.234.378.702.072.378.36.36.576.09.216-.288.378-.81.378-1.08s-.09-.882-.72-.882c-.45 0-.9.396-1.314.936-.468.594-1.35 2.034-1.89 3.042h-.09l.774-2.268c.162-.486.486-1.71-.414-1.71-.864 0-1.548.756-2.124 1.728-.018.216.108.324.288.288.324-.432.81-.936 1.278-.936.162 0 .198.18.144.378-.486 1.764-1.62 4.95-1.854 5.67-.126.396.396.468.594.468zm15.633334 0c.684 0 1.35-.234 1.818-.648.666-.576.918-1.242.936-1.728.036-.792-.234-1.242-.684-1.998-.522-.882-.612-1.26-.612-1.638 0-.27.216-.72.738-.72.558 0 .792.27 1.098.576.108.144.216.18.342.144.144-.072.324-.27.324-.558 0-.45-.414-1.026-1.08-1.026-.234 0-.81.144-1.332.594-.774.666-1.08 1.188-1.08 1.89 0 .306.162.918.63 1.674.45.72.666 1.278.666 1.584 0 .576-.432 1.026-.864 1.026-.468 0-1.008-.45-1.242-.72-.144-.126-.342-.126-.486 0-.198.216-.27.414-.27.594 0 .414.414.954 1.098.954zm9.030666 0c.756 0 2.448-1.098 3.456-2.592.036-.216-.072-.324-.252-.324-.594.684-1.782 1.62-2.052 1.62-.144 0-.234-.108-.126-.45l1.62-4.734h1.962c.234-.126.342-.486.216-.666h-1.962l.522-1.764c-.144-.18-.504-.216-.684-.108l-1.008 1.782-1.44.252c-.18.072-.234.324-.198.504h1.404l-1.692 4.968c-.18.54-.252.792-.252 1.026 0 .216.234.486.486.486zm9.826667 0c.486 0 1.458-.09 2.574-1.242 1.332-1.368 1.854-3.096 1.908-4.086.072-1.314-.558-2.268-1.836-2.268-.738 0-1.548.27-2.484 1.17-1.224 1.17-1.89 2.916-1.962 4.032-.108 1.548.648 2.394 1.8 2.394zm.144-.54c-.522 0-.774-.522-.738-1.152.054-.954.756-3.096 1.8-4.5.522-.702.954-.864 1.314-.864.63 0 .738.63.72 1.188-.036.954-.882 3.33-1.674 4.392-.576.774-1.026.936-1.422.936zm5.476667 5.13c1.206-.036 2.556-.108 3.924-.108.162-.072.162-.27.072-.396l-.738-.108c-.594-.09-.63-.252-.144-1.638l.738-2.124c.054-.18.144-.288.288-.324.252.072.396.108.558.108.072 0 1.44-.072 2.574-1.026 1.368-1.152 2.376-2.61 2.376-4.266 0-1.71-1.62-2.052-2.448-2.052-.342 0-.54.036-.684.036l.378-1.098c-.072-.27-.792-.45-1.026-.252l-.54 1.458c-.882.234-1.602.54-2.232.99-.054.162.036.324.18.342.756-.378 1.17-.558 1.818-.738l-3.348 9.396c-.27.738-.342 1.152-1.35 1.332l-.396.072c-.126.108-.126.288 0 .396zm5.184-5.202c-.288 0-.558-.234-.666-.414-.072-.108-.09-.288-.018-.486l1.872-5.256c.126-.018.27-.036.468-.036.774 0 1.422.45 1.422 1.35 0 .792-.198 2.052-1.062 3.384-.774 1.206-1.782 1.458-2.016 1.458zm6.156666 5.202c1.206-.036 2.556-.108 3.924-.108.162-.072.162-.27.072-.396l-.738-.108c-.594-.09-.63-.252-.144-1.638l.738-2.124c.054-.18.144-.288.288-.324.252.072.396.108.558.108.072 0 1.44-.072 2.574-1.026 1.368-1.152 2.376-2.61 2.376-4.266 0-1.71-1.62-2.052-2.448-2.052-.342 0-.54.036-.684.036l.378-1.098c-.072-.27-.792-.45-1.026-.252l-.54 1.458c-.882.234-1.602.54-2.232.99-.054.162.036.324.18.342.756-.378 1.17-.558 1.818-.738l-3.348 9.396c-.27.738-.342 1.152-1.35 1.332l-.396.072c-.126.108-.126.288 0 .396zm5.184-5.202c-.288 0-.558-.234-.666-.414-.072-.108-.09-.288-.018-.486l1.872-5.256c.126-.018.27-.036.468-.036.774 0 1.422.45 1.422 1.35 0 .792-.198 2.052-1.062 3.384-.774 1.206-1.782 1.458-2.016 1.458zM193.868 3.748c.54 0 .936-.558.936-1.116 0-.396-.198-.684-.612-.684-.702 0-.954.738-.954 1.134 0 .306.162.666.63.666zm-3.132 9.504c1.242 0 3.096-1.62 3.366-2.142 0-.162-.09-.288-.27-.306-.612.702-1.566 1.332-1.872 1.332-.144 0-.126-.216-.054-.396l2.142-5.112c.216-.522.216-.684.108-.792-.072-.072-.162-.18-.288-.18-.594 0-1.98.666-2.97 1.8-.036.144.072.288.234.306.9-.738 1.368-.954 1.494-.954.126 0 .126.144.036.342l-2.286 5.454c-.09.198-.036.36.072.486.09.108.198.162.288.162zm13.350667 0c.99 0 2.412-.864 3.096-2.016 0-.144-.036-.288-.288-.252-.522.63-1.386 1.224-1.692 1.224-.126 0-.108-.162-.036-.342.03-.08.443333-1.0211111.86037-1.99617284l.166113-.38987471c.274183-.64627344.527517-1.25861912.647517-1.59195245.144-.414.288-.972.288-1.26 0-.594-.306-.972-1.008-.972-1.35 0-3.132 1.98-4.41 3.924l-.054-.036 1.224-3.15c.162-.414-.036-.738-.468-.738-.9 0-1.998.738-2.682 1.674-.018.144.072.27.216.27.594-.522 1.224-.9 1.638-.9.144 0 .144.18.054.414-.043549.12193548-.512747 1.39860562-.995677 2.71048605l-.192928.52397635c-.447316 1.2146094-.85875 2.3298602-.899395 2.4355376-.162.414.324.468.522.468.162 0 .234-.054.324-.216 1.062-1.98 1.8-3.384 2.754-4.572.99-1.242 2.052-2.142 2.484-2.142.27 0 .288.216.288.432 0 .36-.234.99-.378 1.314-.414.9-1.08 2.664-1.458 3.546-.378.9-.432 1.026-.432 1.188 0 .216.27.45.432.45zm9.318666 4.59c2.934 0 4.392-1.134 4.392-2.142 0-.576-.306-1.134-1.35-1.746-.648-.396-1.35-.792-1.764-1.08-.468-.306-.594-.63-.594-.846 0-.27.198-.522.396-.63.396-.108 1.08-.342 1.278-.468 1.242-.774 2.286-2.142 2.286-3.6 0-.252-.09-.54-.126-.684-.018-.054.072-.108.162-.108.126 0 .504.054.666.108.162.036.414.09.594.09s.396-.144.396-.558c0-.27-.126-.45-.378-.45-.126 0-.468.054-.81.144s-.702.108-.864.108c-.072 0-.234-.09-.432-.162-.198-.072-.396-.162-.576-.162-.954 0-1.8.342-2.664 1.08-.9.792-1.458 2.016-1.458 3.024 0 1.206.972 1.53 1.314 1.62-.252.324-.81 1.062-.81 1.386 0 .252.108.522.576.828-.972.306-3.078 1.17-3.078 2.538 0 1.206 1.53 1.71 2.844 1.71zm.774-6.984c-.288 0-.54-.252-.54-.63 0-.918.918-2.502 1.62-3.312.558-.612.9-.738 1.206-.738.27 0 .54.234.54.612 0 .576-.63 2.178-1.638 3.366-.504.594-.936.702-1.188.702zm.054 6.39c-1.224 0-2.43-.54-2.43-1.386 0-.414.198-.81.684-1.17.522-.378 1.224-.72 1.674-.666.288.036.918.396 1.674.9.576.396.774.792.774 1.098 0 .864-1.548 1.224-2.376 1.224zm16.643334-3.996c.63 0 1.962-.324 3.438-1.746 1.458-1.422 2.322-2.988 2.322-4.23 0-.918-.486-1.62-1.548-1.62-1.35 0-2.556 1.224-3.816 3.132h-.036l2.34-6.156c.27-.702.54-1.386.918-2.394l-.072-.108c-.828-.018-1.818.216-2.16.342-.072.072-.09.18-.054.252l.414.288c.252.18.198.486-.18 1.494l-2.088 5.544c-.522 1.404-.918 2.7-.918 3.546 0 1.026.468 1.656 1.44 1.656zm.396-.558c-.306 0-.63-.234-.63-.936 0-.828.558-2.304 1.692-3.6 1.116-1.278 1.998-1.89 2.484-1.89.324 0 .63.162.63.648 0 1.026-1.332 3.312-2.448 4.572-.774.864-1.458 1.206-1.728 1.206zm7.614666 5.148c.576 0 1.476-.288 2.808-1.818 1.44-1.638 2.088-2.826 2.97-4.32 1.62-2.718 2.106-5.04 2.088-5.49 0-.198-.054-.288-.162-.36-.144-.09-.378-.162-.504-.162s-.396.036-.432.558c-.018.468-.288 2.286-.666 3.33-.396 1.098-.918 2.214-1.512 3.096h-.072c.252-1.494.288-2.808.27-3.96-.036-1.26-.18-3.06-1.098-3.06-.882 0-1.674 1.116-2.052 2.322.036.162.144.288.342.234.378-.756.684-1.368 1.044-1.368.342 0 .648.702.684 2.7.018 1.53-.108 3.186-.36 4.104-.342 1.188-1.134 2.322-1.584 2.7-.432.36-.756.504-.99.504-.288 0-.45-.234-.504-.324-.126-.18-.306-.288-.486-.288-.396 0-.72.324-.72.774s.36.828.936.828zM250.69 13.252c.522 0 1.026-.432 1.026-1.152 0-.414-.27-.81-.792-.81s-1.026.468-1.026 1.116c0 .522.288.846.792.846z"/>
      </g>
    </g>
  </g>
</svg>
