<?xml version="1.0" encoding="UTF-8"?>
<svg width="282px" height="57px" viewBox="0 0 282 57" version="1.1" xmlns="http://www.w3.org/2000/svg" xmlns:xlink="http://www.w3.org/1999/xlink">
    <title>Group 3</title>
    <g id="Full-Bleed---Grid-(24px-margin)" stroke="none" stroke-width="1" fill="none" fill-rule="evenodd">
        <g id="footer-copy" transform="translate(-369.000000, -144.000000)" fill="#FFFDFF" fill-rule="nonzero">
            <g id="Group-3" transform="translate(369.000000, 144.000000)">
                <path d="M2.95433333,54.033 C3.03133333,54 3.05333333,53.813 2.97633333,53.758 L2.58033333,53.725 C2.21073333,53.6942 2.16692889,53.57716 2.16273096,52.9177662 L2.16233333,50.447 C2.16233333,50.15 2.16233333,50.128 2.34933333,50.128 L3.52633333,50.128 C3.64733333,50.084 3.72433333,49.776 3.60333333,49.666 L2.34933333,49.666 C2.18311111,49.666 2.16464198,49.6573086 2.16258985,49.4467846 L2.16233333,49.039 C2.16233333,48.489 2.20633333,47.686 2.40433333,47.18 C2.56933333,46.784 2.84433333,46.575 3.18533333,46.575 C3.54833333,46.575 3.85633333,46.817 4.06533333,47.059 C4.14233333,47.147 4.20833333,47.191 4.32933333,47.191 C4.53833333,47.191 4.74733333,47.015 4.74733333,46.795 C4.74733333,46.399 4.25233333,46.135 3.66933333,46.135 C2.58033333,46.135 1.96433333,46.905 1.68933333,47.532 C1.42533333,48.148 1.34833333,48.83 1.34833333,49.468 C1.34833333,49.578 1.27133333,49.644 1.18333333,49.688 L0.710333333,49.919 C0.666333333,49.985 0.677333333,50.084 0.743333333,50.128 L1.12833333,50.128 C1.32388889,50.128 1.34561728,50.1453827 1.34803155,50.3578381 L1.34833333,52.768 C1.34833333,53.56 1.33733333,53.67 0.930333333,53.725 L0.677333333,53.758 C0.600333333,53.813 0.622333333,54 0.699333333,54.033 C1.02933333,54.011 1.35933333,54 1.75533333,54 C2.14033333,54 2.45933333,54.011 2.95433333,54.033 Z M10.485,54.264 C10.859,54.055 11.497,53.945 11.926,53.857 C12.014,53.813 12.003,53.593 11.937,53.538 C11.783,53.571 11.64,53.593 11.508,53.593 C11.2205333,53.593 11.1726222,53.3055333 11.1675117,52.5606753 L11.167,50.546 C11.167,50.139 11.178,49.798 11.2,49.589 C11.189,49.545 11.156,49.523 11.101,49.512 C10.859,49.622 10.254,49.699 9.814,49.71 C9.726,49.754 9.726,49.908 9.803,49.952 L9.946,50.007 C10.276,50.139 10.353,50.161 10.353,50.876 L10.353,52.68 C10.353,53.021 10.276,53.186 10.133,53.318 C9.891,53.527 9.539,53.648 9.242,53.648 C8.406,53.648 8.219,53.142 8.219,52.383 L8.219,50.546 C8.219,50.007 8.23,49.776 8.252,49.589 C8.241,49.545 8.208,49.523 8.142,49.512 C7.9,49.6 7.471,49.699 6.965,49.71 C6.888,49.743 6.877,49.897 6.943,49.952 L7.075,50.007 C7.405,50.15 7.405,50.249 7.405,50.942 L7.405,52.779 C7.405,53.67 7.768,54.154 8.736,54.154 C9.385,54.154 9.924,53.791 10.254,53.582 C10.32,53.582 10.353,53.637 10.353,53.736 L10.353,54.187 C10.375,54.231 10.43,54.264 10.485,54.264 Z M17.5206667,54.033 C17.5976667,54 17.6196667,53.813 17.5426667,53.758 L17.2786667,53.725 C16.8826667,53.67 16.8606667,53.56 16.8606667,52.768 L16.8606667,47.565 C16.8606667,47.081 16.8826667,46.531 16.8936667,46.201 C16.8716667,46.157 16.8276667,46.135 16.7836667,46.135 C16.3876667,46.344 15.8706667,46.509 15.5956667,46.597 C15.5406667,46.63 15.5406667,46.784 15.5956667,46.817 L15.7056667,46.883 C16.0102821,47.0657692 16.0430868,47.1360651 16.0463312,47.6562544 L16.0466667,52.768 C16.0466667,53.56 16.0356667,53.67 15.6286667,53.725 L15.3756667,53.758 C15.2986667,53.813 15.3206667,54 15.3976667,54.033 C15.7276667,54.011 16.0576667,54 16.4536667,54 C16.8386667,54 17.1576667,54.011 17.5206667,54.033 Z M23.2143333,54.033 C23.2913333,54 23.3133333,53.813 23.2363333,53.758 L22.9723333,53.725 C22.6027333,53.6736667 22.5589289,53.5744222 22.554731,52.9174924 L22.5543333,47.565 C22.5543333,47.081 22.5763333,46.531 22.5873333,46.201 C22.5653333,46.157 22.5213333,46.135 22.4773333,46.135 C22.0813333,46.344 21.5643333,46.509 21.2893333,46.597 C21.2343333,46.63 21.2343333,46.784 21.2893333,46.817 L21.3993333,46.883 C21.7293333,47.081 21.7403333,47.147 21.7403333,47.796 L21.7403333,52.768 C21.7403333,53.56 21.7293333,53.67 21.3223333,53.725 L21.0693333,53.758 C20.9923333,53.813 21.0143333,54 21.0913333,54.033 C21.4213333,54.011 21.7513333,54 22.1473333,54 C22.5323333,54 22.8513333,54.011 23.2143333,54.033 Z M34.7666667,56.838 C34.8436667,56.805 34.8656667,56.618 34.7886667,56.563 L34.3596667,56.508 C33.9636667,56.453 33.9416667,56.354 33.9416667,55.573 L33.9416667,54.418 C33.9416667,54.187 33.9966667,54.132 34.0956667,54.11 C34.1946667,54.132 34.5026667,54.154 34.7006667,54.154 C36.2626667,54.154 37.3846667,53.054 37.3846667,51.525 C37.3846667,50.414 36.6696667,49.512 35.5586667,49.512 C34.8546667,49.512 34.1616667,49.963 34.0186667,50.029 C33.9416667,50.029 33.9196667,49.963 33.9196667,49.886 C33.9196667,49.743 33.9416667,49.578 33.9636667,49.38 C33.9416667,49.325 33.8976667,49.303 33.8316667,49.303 C33.5456667,49.512 33.0286667,49.776 32.7426667,49.897 C32.6876667,49.93 32.6876667,50.051 32.7316667,50.095 L32.8306667,50.161 C33.0979667,50.3392 33.1246967,50.40157 33.1273697,50.725003 L33.1276667,55.573 C33.1276667,56.365 33.1166667,56.475 32.7096667,56.53 L32.4786667,56.563 C32.4016667,56.618 32.4236667,56.805 32.5006667,56.838 C32.8086667,56.816 33.1386667,56.805 33.5346667,56.805 C33.9196667,56.805 34.2386667,56.816 34.7666667,56.838 Z M35.0636667,53.791 C34.8326667,53.791 34.4916667,53.714 34.2716667,53.549 C34.0516667,53.373 33.9416667,53.241 33.9416667,52.889 L33.9416667,50.997 C33.9416667,50.634 33.9746667,50.469 34.0736667,50.348 C34.1946667,50.216 34.5356667,50.04 35.0086667,50.04 C35.9986667,50.04 36.4936667,50.931 36.4936667,51.811 C36.4936667,52.955 35.9656667,53.791 35.0636667,53.791 Z M43.3863333,54.154 C44.7613333,54.154 45.7073333,53.164 45.7073333,51.789 C45.7073333,50.436 44.7063333,49.512 43.4743333,49.512 C42.1763333,49.512 41.1313333,50.502 41.1313333,51.888 C41.1313333,53.263 42.1213333,54.154 43.3863333,54.154 Z M43.4963333,53.824 C42.5283333,53.824 42.0773333,52.746 42.0773333,51.745 C42.0773333,50.535 42.6163333,49.842 43.3423333,49.842 C44.3873333,49.842 44.7613333,51.03 44.7613333,51.965 C44.7613333,52.812 44.4643333,53.824 43.4963333,53.824 Z M51.775,54.033 C51.852,54 51.874,53.813 51.797,53.758 L51.401,53.725 C51.0108667,53.6942 50.9656933,53.57716 50.9614041,52.9177662 L50.961,51.272 C50.961,50.898 50.994,50.579 51.104,50.425 C51.192,50.304 51.324,50.205 51.5,50.205 C51.654,50.205 51.819,50.271 51.984,50.381 C52.061,50.425 52.116,50.458 52.226,50.458 C52.402,50.458 52.699,50.315 52.699,49.952 C52.699,49.688 52.479,49.512 52.204,49.512 C51.797,49.512 51.379,49.853 50.994,50.172 C50.972,50.161 50.961,50.128 50.961,50.073 L50.961,49.435 C50.961,49.391 50.928,49.369 50.873,49.358 C50.598,49.523 50.015,49.809 49.762,49.897 C49.707,49.93 49.707,50.051 49.751,50.095 L49.85,50.161 C50.147,50.359 50.147,50.414 50.147,50.843 L50.147,52.768 C50.147,53.56 50.136,53.659 49.729,53.725 L49.52,53.758 C49.443,53.813 49.465,54 49.542,54.033 C49.828,54.011 50.158,54 50.554,54 C50.939,54 51.258,54.011 51.775,54.033 Z M57.8976667,54.154 C58.4586667,54.154 58.8546667,53.879 59.0526667,53.648 C59.0746667,53.582 59.0306667,53.461 58.9426667,53.461 C58.9096667,53.461 58.7666667,53.582 58.6676667,53.615 C58.5796667,53.648 58.4806667,53.67 58.3706667,53.67 C57.6446667,53.67 57.5676667,53.087 57.5676667,52.449 L57.5676667,50.392 C57.5676667,50.161 57.5786667,50.128 57.7656667,50.128 L59.0086667,50.128 C59.1076667,50.062 59.1296667,49.765 58.9976667,49.666 L57.7766667,49.666 C57.5896667,49.666 57.5786667,49.655 57.5786667,49.457 L57.5786667,48.962 C57.5346667,48.885 57.4026667,48.885 57.3476667,48.907 C57.2376667,49.127 57.0286667,49.424 56.8856667,49.556 C56.7756667,49.655 56.5006667,49.798 56.1816667,49.897 C56.1376667,49.963 56.1486667,50.084 56.2146667,50.128 L56.5226667,50.128 C56.7426667,50.128 56.7536667,50.15 56.7536667,50.447 L56.7536667,52.966 C56.7536667,53.626 56.9516667,54.154 57.8976667,54.154 Z M64.7903333,54.033 C64.8673333,54 64.8893333,53.813 64.8123333,53.758 L64.4163333,53.725 C64.0467333,53.6942 64.0029289,53.57716 63.998731,52.9177662 L63.9983333,50.447 C63.9983333,50.15 63.9983333,50.128 64.1853333,50.128 L65.3623333,50.128 C65.4833333,50.084 65.5603333,49.776 65.4393333,49.666 L64.1853333,49.666 C64.0191111,49.666 64.000642,49.6573086 63.9985898,49.4467846 L63.9983333,49.039 C63.9983333,48.489 64.0423333,47.686 64.2403333,47.18 C64.4053333,46.784 64.6803333,46.575 65.0213333,46.575 C65.3843333,46.575 65.6923333,46.817 65.9013333,47.059 C65.9783333,47.147 66.0443333,47.191 66.1653333,47.191 C66.3743333,47.191 66.5833333,47.015 66.5833333,46.795 C66.5833333,46.399 66.0883333,46.135 65.5053333,46.135 C64.4163333,46.135 63.8003333,46.905 63.5253333,47.532 C63.2613333,48.148 63.1843333,48.83 63.1843333,49.468 C63.1843333,49.578 63.1073333,49.644 63.0193333,49.688 L62.5463333,49.919 C62.5023333,49.985 62.5133333,50.084 62.5793333,50.128 L62.9643333,50.128 C63.1598889,50.128 63.1816173,50.1453827 63.1840316,50.3578381 L63.1843333,52.768 C63.1843333,53.56 63.1733333,53.67 62.7663333,53.725 L62.5133333,53.758 C62.4363333,53.813 62.4583333,54 62.5353333,54.033 C62.8653333,54.011 63.1953333,54 63.5913333,54 C63.9763333,54 64.2953333,54.011 64.7903333,54.033 Z M70.946,54.154 C72.321,54.154 73.267,53.164 73.267,51.789 C73.267,50.436 72.266,49.512 71.034,49.512 C69.736,49.512 68.691,50.502 68.691,51.888 C68.691,53.263 69.681,54.154 70.946,54.154 Z M71.056,53.824 C70.088,53.824 69.637,52.746 69.637,51.745 C69.637,50.535 70.176,49.842 70.902,49.842 C71.947,49.842 72.321,51.03 72.321,51.965 C72.321,52.812 72.024,53.824 71.056,53.824 Z M79.0706667,54.033 C79.1476667,54 79.1696667,53.813 79.0926667,53.758 L78.8286667,53.725 C78.4326667,53.67 78.4106667,53.56 78.4106667,52.768 L78.4106667,47.565 C78.4106667,47.081 78.4326667,46.531 78.4436667,46.201 C78.4216667,46.157 78.3776667,46.135 78.3336667,46.135 C77.9376667,46.344 77.4206667,46.509 77.1456667,46.597 C77.0906667,46.63 77.0906667,46.784 77.1456667,46.817 L77.2556667,46.883 C77.5602821,47.0657692 77.5930868,47.1360651 77.5963312,47.6562544 L77.5966667,52.768 C77.5966667,53.56 77.5856667,53.67 77.1786667,53.725 L76.9256667,53.758 C76.8486667,53.813 76.8706667,54 76.9476667,54.033 C77.2776667,54.011 77.6076667,54 78.0036667,54 C78.3886667,54 78.7076667,54.011 79.0706667,54.033 Z M83.7303333,48.28 C84.0383333,48.28 84.3133333,48.104 84.3133333,47.708 C84.3133333,47.4 84.0933333,47.136 83.7633333,47.136 C83.4333333,47.136 83.1693333,47.367 83.1693333,47.73 C83.1693333,48.027 83.3893333,48.28 83.7303333,48.28 Z M84.8413333,54.033 C84.9183333,54 84.9403333,53.813 84.8633333,53.758 L84.6323333,53.725 C84.2627333,53.6736667 84.2189289,53.5744222 84.214731,52.9174924 L84.2143333,50.788 C84.2143333,50.337 84.2363333,49.809 84.2583333,49.424 C84.2473333,49.38 84.2033333,49.358 84.1483333,49.358 C83.8953333,49.523 83.2683333,49.809 83.0153333,49.897 C82.9603333,49.93 82.9603333,50.051 83.0043333,50.095 L83.1033333,50.161 C83.3706333,50.3392 83.3973633,50.40157 83.4000363,50.725003 L83.4003333,52.768 C83.4003333,53.56 83.3893333,53.67 82.9823333,53.725 L82.7513333,53.758 C82.6743333,53.813 82.6963333,54 82.7733333,54.033 C83.0813333,54.011 83.4113333,54 83.8073333,54 C84.1923333,54 84.5113333,54.011 84.8413333,54.033 Z M90.766,54.154 C92.141,54.154 93.087,53.164 93.087,51.789 C93.087,50.436 92.086,49.512 90.854,49.512 C89.556,49.512 88.511,50.502 88.511,51.888 C88.511,53.263 89.501,54.154 90.766,54.154 Z M90.876,53.824 C89.908,53.824 89.457,52.746 89.457,51.745 C89.457,50.535 89.996,49.842 90.722,49.842 C91.767,49.842 92.141,51.03 92.141,51.965 C92.141,52.812 91.844,53.824 90.876,53.824 Z M103.583333,48.28 C103.891333,48.28 104.166333,48.104 104.166333,47.708 C104.166333,47.4 103.946333,47.136 103.616333,47.136 C103.286333,47.136 103.022333,47.367 103.022333,47.73 C103.022333,48.027 103.242333,48.28 103.583333,48.28 Z M104.694333,54.033 C104.771333,54 104.793333,53.813 104.716333,53.758 L104.485333,53.725 C104.115733,53.6736667 104.071929,53.5744222 104.067731,52.9174924 L104.067333,50.788 C104.067333,50.337 104.089333,49.809 104.111333,49.424 C104.100333,49.38 104.056333,49.358 104.001333,49.358 C103.748333,49.523 103.121333,49.809 102.868333,49.897 C102.813333,49.93 102.813333,50.051 102.857333,50.095 L102.956333,50.161 C103.223633,50.3392 103.250363,50.40157 103.253036,50.725003 L103.253333,52.768 C103.253333,53.56 103.242333,53.67 102.835333,53.725 L102.604333,53.758 C102.527333,53.813 102.549333,54 102.626333,54.033 C102.934333,54.011 103.264333,54 103.660333,54 C104.045333,54 104.364333,54.011 104.694333,54.033 Z M109.618,54.154 C110.432,54.154 111.202,53.736 111.202,52.9 C111.202,52.119 110.663,51.745 110.08,51.415 C109.695,51.195 109.233,50.953 109.233,50.502 C109.233,50.106 109.508,49.831 109.937,49.831 C110.388,49.831 110.718,50.15 110.905,50.634 C110.96,50.7 111.125,50.678 111.169,50.601 C111.169,50.304 111.092,49.952 110.993,49.71 C110.894,49.622 110.487,49.512 110.025,49.512 C109.189,49.512 108.529,49.963 108.529,50.766 C108.529,51.371 108.98,51.756 109.618,52.119 C110.025,52.35 110.465,52.625 110.465,53.131 C110.465,53.604 110.124,53.835 109.728,53.835 C109.101,53.835 108.749,53.307 108.562,52.702 C108.507,52.636 108.364,52.647 108.309,52.713 C108.287,53.076 108.353,53.615 108.441,53.824 C108.716,54.044 109.101,54.154 109.618,54.154 Z M123.843333,54.154 C124.382333,54.154 124.767333,53.725 124.767333,53.67 C124.767333,53.593 124.734333,53.527 124.690333,53.527 C124.657333,53.527 124.602333,53.571 124.547333,53.604 C124.481333,53.637 124.382333,53.67 124.272333,53.67 C123.843333,53.67 123.744333,53.219 123.766333,52.713 L123.832333,50.799 C123.865333,49.974 123.480333,49.512 122.688333,49.512 C121.885333,49.512 120.642333,50.293 120.642333,50.865 C120.642333,50.964 120.697333,51.019 120.796333,51.019 C120.961333,51.019 121.258333,50.942 121.423333,50.81 C121.511333,50.744 121.522333,50.612 121.533333,50.436 C121.555333,50.095 121.929333,49.941 122.237333,49.941 C122.919333,49.941 123.051333,50.491 123.040333,50.898 L123.029333,51.404 C123.029333,51.569 123.007333,51.668 122.842333,51.723 L121.533333,52.196 C120.829333,52.449 120.620333,52.702 120.620333,53.131 C120.620333,53.439 120.752333,53.714 120.961333,53.901 C121.148333,54.066 121.412333,54.154 121.731333,54.154 C122.039333,54.154 122.281333,54.011 122.523333,53.879 C122.743333,53.758 122.875333,53.659 122.952333,53.659 C123.018333,53.659 123.084333,53.747 123.128333,53.813 C123.315333,54.055 123.579333,54.154 123.843333,54.154 Z M122.160333,53.659 C121.599333,53.659 121.467333,53.186 121.467333,52.999 C121.467333,52.57 121.786333,52.405 122.435333,52.185 C122.633333,52.119 122.820333,52.075 122.886333,52.075 C122.952333,52.075 122.996333,52.097 122.996333,52.218 L122.974333,52.867 C122.963333,53.098 122.963333,53.252 122.831333,53.384 C122.721333,53.494 122.380333,53.659 122.160333,53.659 Z M130.043,54.176 C130.087,54.176 130.131,54.165 130.153,54.132 C130.296,53.758 130.406,53.505 130.516,53.23 C130.692,52.779 131.374,51.184 131.528,50.887 C131.847,50.271 131.946,49.985 132.331,49.93 L132.496,49.908 C132.562,49.842 132.551,49.677 132.474,49.633 C132.166,49.655 131.979,49.666 131.704,49.666 C131.495,49.666 131.22,49.655 130.879,49.633 C130.802,49.677 130.791,49.831 130.857,49.908 L131.11,49.941 C131.242,49.963 131.308,50.007 131.308,50.106 C131.308,50.172 131.264,50.403 131.11,50.788 C131,51.074 130.626,52.031 130.483,52.405 C130.395,52.636 130.318,52.79 130.274,52.823 C130.241,52.79 130.197,52.691 130.098,52.471 C129.845,51.899 129.526,51.129 129.273,50.37 C129.163,50.04 129.174,49.985 129.515,49.93 L129.647,49.908 C129.724,49.853 129.713,49.677 129.636,49.633 C129.262,49.655 129.042,49.666 128.745,49.666 C128.371,49.666 127.986,49.655 127.711,49.633 C127.623,49.666 127.612,49.82 127.678,49.908 L127.898,49.941 C128.294,49.996 128.393,50.348 128.558,50.755 L129.482,52.988 C129.647,53.395 129.812,53.824 129.9,54.132 C129.933,54.165 129.988,54.176 130.043,54.176 Z M138.926667,54.154 C139.465667,54.154 139.850667,53.725 139.850667,53.67 C139.850667,53.593 139.817667,53.527 139.773667,53.527 C139.740667,53.527 139.685667,53.571 139.630667,53.604 C139.564667,53.637 139.465667,53.67 139.355667,53.67 C138.926667,53.67 138.827667,53.219 138.849667,52.713 L138.915667,50.799 C138.948667,49.974 138.563667,49.512 137.771667,49.512 C136.968667,49.512 135.725667,50.293 135.725667,50.865 C135.725667,50.964 135.780667,51.019 135.879667,51.019 C136.044667,51.019 136.341667,50.942 136.506667,50.81 C136.594667,50.744 136.605667,50.612 136.616667,50.436 C136.638667,50.095 137.012667,49.941 137.320667,49.941 C138.002667,49.941 138.134667,50.491 138.123667,50.898 L138.112667,51.404 C138.112667,51.569 138.090667,51.668 137.925667,51.723 L136.616667,52.196 C135.912667,52.449 135.703667,52.702 135.703667,53.131 C135.703667,53.439 135.835667,53.714 136.044667,53.901 C136.231667,54.066 136.495667,54.154 136.814667,54.154 C137.122667,54.154 137.364667,54.011 137.606667,53.879 C137.826667,53.758 137.958667,53.659 138.035667,53.659 C138.101667,53.659 138.167667,53.747 138.211667,53.813 C138.398667,54.055 138.662667,54.154 138.926667,54.154 Z M137.243667,53.659 C136.682667,53.659 136.550667,53.186 136.550667,52.999 C136.550667,52.57 136.869667,52.405 137.518667,52.185 C137.716667,52.119 137.903667,52.075 137.969667,52.075 C138.035667,52.075 138.079667,52.097 138.079667,52.218 L138.057667,52.867 C138.046667,53.098 138.046667,53.252 137.914667,53.384 C137.804667,53.494 137.463667,53.659 137.243667,53.659 Z M144.147333,48.28 C144.455333,48.28 144.730333,48.104 144.730333,47.708 C144.730333,47.4 144.510333,47.136 144.180333,47.136 C143.850333,47.136 143.586333,47.367 143.586333,47.73 C143.586333,48.027 143.806333,48.28 144.147333,48.28 Z M145.258333,54.033 C145.335333,54 145.357333,53.813 145.280333,53.758 L145.049333,53.725 C144.679733,53.6736667 144.635929,53.5744222 144.631731,52.9174924 L144.631333,50.788 C144.631333,50.337 144.653333,49.809 144.675333,49.424 C144.664333,49.38 144.620333,49.358 144.565333,49.358 C144.312333,49.523 143.685333,49.809 143.432333,49.897 C143.377333,49.93 143.377333,50.051 143.421333,50.095 L143.520333,50.161 C143.787633,50.3392 143.814363,50.40157 143.817036,50.725003 L143.817333,52.768 C143.817333,53.56 143.806333,53.67 143.399333,53.725 L143.168333,53.758 C143.091333,53.813 143.113333,54 143.190333,54.033 C143.498333,54.011 143.828333,54 144.224333,54 C144.609333,54 144.928333,54.011 145.258333,54.033 Z M150.985,54.033 C151.062,54 151.084,53.813 151.007,53.758 L150.743,53.725 C150.3734,53.6736667 150.329596,53.5744222 150.325398,52.9174924 L150.325,47.565 C150.325,47.081 150.347,46.531 150.358,46.201 C150.336,46.157 150.292,46.135 150.248,46.135 C149.852,46.344 149.335,46.509 149.06,46.597 C149.005,46.63 149.005,46.784 149.06,46.817 L149.17,46.883 C149.5,47.081 149.511,47.147 149.511,47.796 L149.511,52.768 C149.511,53.56 149.5,53.67 149.093,53.725 L148.84,53.758 C148.763,53.813 148.785,54 148.862,54.033 C149.192,54.011 149.522,54 149.918,54 C150.303,54 150.622,54.011 150.985,54.033 Z M157.844667,54.154 C158.383667,54.154 158.768667,53.725 158.768667,53.67 C158.768667,53.593 158.735667,53.527 158.691667,53.527 C158.658667,53.527 158.603667,53.571 158.548667,53.604 C158.482667,53.637 158.383667,53.67 158.273667,53.67 C157.844667,53.67 157.745667,53.219 157.767667,52.713 L157.833667,50.799 C157.866667,49.974 157.481667,49.512 156.689667,49.512 C155.886667,49.512 154.643667,50.293 154.643667,50.865 C154.643667,50.964 154.698667,51.019 154.797667,51.019 C154.962667,51.019 155.259667,50.942 155.424667,50.81 C155.512667,50.744 155.523667,50.612 155.534667,50.436 C155.556667,50.095 155.930667,49.941 156.238667,49.941 C156.920667,49.941 157.052667,50.491 157.041667,50.898 L157.030667,51.404 C157.030667,51.569 157.008667,51.668 156.843667,51.723 L155.534667,52.196 C154.830667,52.449 154.621667,52.702 154.621667,53.131 C154.621667,53.439 154.753667,53.714 154.962667,53.901 C155.149667,54.066 155.413667,54.154 155.732667,54.154 C156.040667,54.154 156.282667,54.011 156.524667,53.879 C156.744667,53.758 156.876667,53.659 156.953667,53.659 C157.019667,53.659 157.085667,53.747 157.129667,53.813 C157.316667,54.055 157.580667,54.154 157.844667,54.154 Z M156.161667,53.659 C155.600667,53.659 155.468667,53.186 155.468667,52.999 C155.468667,52.57 155.787667,52.405 156.436667,52.185 C156.634667,52.119 156.821667,52.075 156.887667,52.075 C156.953667,52.075 156.997667,52.097 156.997667,52.218 L156.975667,52.867 C156.964667,53.098 156.964667,53.252 156.832667,53.384 C156.722667,53.494 156.381667,53.659 156.161667,53.659 Z M164.242333,54.154 C165.716333,54.154 166.772333,53.131 166.772333,51.668 C166.772333,50.458 165.925333,49.512 164.671333,49.512 C164.132333,49.512 163.692333,49.71 163.406333,49.875 C163.340333,49.875 163.296333,49.831 163.296333,49.644 L163.296333,47.565 C163.296333,47.081 163.318333,46.586 163.340333,46.201 C163.318333,46.157 163.274333,46.135 163.230333,46.135 C162.812333,46.355 162.284333,46.498 162.031333,46.597 C161.976333,46.63 161.976333,46.784 162.031333,46.817 L162.141333,46.883 C162.471333,47.081 162.482333,47.147 162.482333,47.796 L162.482333,53.043 C162.482333,53.615 162.471333,53.824 162.460333,53.978 C162.482333,54.022 162.526333,54.044 162.570333,54.044 C162.592333,54.044 162.603333,54.044 162.614333,54.033 C162.669333,53.956 162.757333,53.868 162.845333,53.868 C162.933333,53.868 163.076333,53.934 163.307333,54.011 C163.527333,54.077 163.835333,54.154 164.242333,54.154 Z M164.407333,53.824 C164.055333,53.824 163.758333,53.692 163.571333,53.461 C163.384333,53.23 163.296333,52.889 163.296333,52.504 L163.296333,50.788 C163.296333,50.359 163.318333,50.238 163.428333,50.161 C163.582333,50.062 163.846333,49.985 164.176333,49.985 C165.265333,49.985 165.848333,50.865 165.848333,51.998 C165.848333,52.944 165.441333,53.824 164.407333,53.824 Z M172.576,54.033 C172.653,54 172.675,53.813 172.598,53.758 L172.334,53.725 C171.9644,53.6736667 171.920596,53.5744222 171.916398,52.9174924 L171.916,47.565 C171.916,47.081 171.938,46.531 171.949,46.201 C171.927,46.157 171.883,46.135 171.839,46.135 C171.443,46.344 170.926,46.509 170.651,46.597 C170.596,46.63 170.596,46.784 170.651,46.817 L170.761,46.883 C171.091,47.081 171.102,47.147 171.102,47.796 L171.102,52.768 C171.102,53.56 171.091,53.67 170.684,53.725 L170.431,53.758 C170.354,53.813 170.376,54 170.453,54.033 C170.783,54.011 171.113,54 171.509,54 C171.894,54 172.213,54.011 172.576,54.033 Z M178.269667,54.154 C178.841667,54.154 179.633667,53.879 179.996667,53.131 C179.985667,53.032 179.908667,52.966 179.798667,52.999 C179.457667,53.428 179.149667,53.538 178.786667,53.538 C177.609667,53.538 176.960667,52.592 176.960667,51.481 C176.960667,51.206 176.971667,51.184 177.257667,51.184 L179.292667,51.184 C179.754667,51.184 179.908667,51.173 179.941667,51.107 C179.963667,51.063 179.985667,50.975 179.985667,50.821 C179.985667,50.161 179.369667,49.512 178.423667,49.512 C177.103667,49.512 176.212667,50.645 176.212667,51.998 C176.212667,52.482 176.344667,52.999 176.674667,53.428 C176.993667,53.846 177.554667,54.154 178.269667,54.154 Z M178.105492,50.8533345 L177.158667,50.854 C177.081667,50.854 177.081667,50.821 177.081667,50.799 C177.092667,50.436 177.653667,49.842 178.302667,49.842 C178.940667,49.842 179.149667,50.227 179.149667,50.535 C179.149667,50.678 179.116667,50.722 179.083667,50.744 C179.001952,50.8052857 178.787452,50.847602 178.105492,50.8533345 Z M192.902,54.264 C193.276,54.055 193.914,53.945 194.343,53.857 C194.431,53.813 194.42,53.593 194.354,53.538 C194.2,53.571 194.057,53.593 193.925,53.593 C193.637533,53.593 193.589622,53.3055333 193.584512,52.5606753 L193.584,50.546 C193.584,50.139 193.595,49.798 193.617,49.589 C193.606,49.545 193.573,49.523 193.518,49.512 C193.276,49.622 192.671,49.699 192.231,49.71 C192.143,49.754 192.143,49.908 192.22,49.952 L192.363,50.007 C192.693,50.139 192.77,50.161 192.77,50.876 L192.77,52.68 C192.77,53.021 192.693,53.186 192.55,53.318 C192.308,53.527 191.956,53.648 191.659,53.648 C190.823,53.648 190.636,53.142 190.636,52.383 L190.636,50.546 C190.636,50.007 190.647,49.776 190.669,49.589 C190.658,49.545 190.625,49.523 190.559,49.512 C190.317,49.6 189.888,49.699 189.382,49.71 C189.305,49.743 189.294,49.897 189.36,49.952 L189.492,50.007 C189.822,50.15 189.822,50.249 189.822,50.942 L189.822,52.779 C189.822,53.67 190.185,54.154 191.153,54.154 C191.802,54.154 192.341,53.791 192.671,53.582 C192.737,53.582 192.77,53.637 192.77,53.736 L192.77,54.187 C192.792,54.231 192.847,54.264 192.902,54.264 Z M200.069667,56.838 C200.146667,56.805 200.168667,56.618 200.091667,56.563 L199.662667,56.508 C199.266667,56.453 199.244667,56.354 199.244667,55.573 L199.244667,54.418 C199.244667,54.187 199.299667,54.132 199.398667,54.11 C199.497667,54.132 199.805667,54.154 200.003667,54.154 C201.565667,54.154 202.687667,53.054 202.687667,51.525 C202.687667,50.414 201.972667,49.512 200.861667,49.512 C200.157667,49.512 199.464667,49.963 199.321667,50.029 C199.244667,50.029 199.222667,49.963 199.222667,49.886 C199.222667,49.743 199.244667,49.578 199.266667,49.38 C199.244667,49.325 199.200667,49.303 199.134667,49.303 C198.848667,49.512 198.331667,49.776 198.045667,49.897 C197.990667,49.93 197.990667,50.051 198.034667,50.095 L198.133667,50.161 C198.400967,50.3392 198.427697,50.40157 198.43037,50.725003 L198.430667,55.573 C198.430667,56.365 198.419667,56.475 198.012667,56.53 L197.781667,56.563 C197.704667,56.618 197.726667,56.805 197.803667,56.838 C198.111667,56.816 198.441667,56.805 198.837667,56.805 C199.222667,56.805 199.541667,56.816 200.069667,56.838 Z M200.366667,53.791 C200.135667,53.791 199.794667,53.714 199.574667,53.549 C199.354667,53.373 199.244667,53.241 199.244667,52.889 L199.244667,50.997 C199.244667,50.634 199.277667,50.469 199.376667,50.348 C199.497667,50.216 199.838667,50.04 200.311667,50.04 C201.301667,50.04 201.796667,50.931 201.796667,51.811 C201.796667,52.955 201.268667,53.791 200.366667,53.791 Z M208.689333,54.154 C210.064333,54.154 211.010333,53.164 211.010333,51.789 C211.010333,50.436 210.009333,49.512 208.777333,49.512 C207.479333,49.512 206.434333,50.502 206.434333,51.888 C206.434333,53.263 207.424333,54.154 208.689333,54.154 Z M208.799333,53.824 C207.831333,53.824 207.380333,52.746 207.380333,51.745 C207.380333,50.535 207.919333,49.842 208.645333,49.842 C209.690333,49.842 210.064333,51.03 210.064333,51.965 C210.064333,52.812 209.767333,53.824 208.799333,53.824 Z M219.85,54.033 C219.927,54 219.949,53.813 219.872,53.758 L219.63,53.725 C219.2604,53.6736667 219.216596,53.5744222 219.212398,52.9174924 L219.212,50.876 C219.212,50.139 218.838,49.512 217.925,49.512 C217.364,49.512 216.847,49.787 216.385,50.073 C216.308,50.073 216.264,50.018 216.264,49.952 C216.264,49.853 216.264,49.688 216.286,49.435 C216.264,49.38 216.209,49.358 216.165,49.358 C215.945,49.523 215.318,49.809 215.065,49.897 C215.01,49.93 215.01,50.051 215.054,50.095 L215.153,50.161 C215.45,50.359 215.45,50.414 215.45,50.843 L215.45,52.768 C215.45,53.56 215.439,53.67 215.032,53.725 L214.801,53.758 C214.724,53.813 214.746,54 214.823,54.033 C215.131,54.011 215.461,54 215.857,54 C216.242,54 216.561,54.011 216.858,54.033 C216.935,54 216.957,53.813 216.88,53.758 L216.682,53.725 C216.3124,53.6634 216.268596,53.5730533 216.264398,52.9173556 L216.264,51.085 C216.264,50.766 216.286,50.612 216.429,50.425 C216.583,50.216 216.946,50.04 217.364,50.04 C218.112,50.04 218.398,50.502 218.398,51.129 L218.398,52.768 C218.398,53.56 218.387,53.659 217.98,53.725 L217.771,53.758 C217.694,53.813 217.716,54 217.793,54.033 C218.09,54.011 218.42,54 218.816,54 C219.201,54 219.52,54.011 219.85,54.033 Z M231.556333,54.033 C231.633333,54 231.655333,53.813 231.578333,53.758 L231.182333,53.725 C230.7922,53.6942 230.747027,53.57716 230.742737,52.9177662 L230.742333,51.272 C230.742333,50.898 230.775333,50.579 230.885333,50.425 C230.973333,50.304 231.105333,50.205 231.281333,50.205 C231.435333,50.205 231.600333,50.271 231.765333,50.381 C231.842333,50.425 231.897333,50.458 232.007333,50.458 C232.183333,50.458 232.480333,50.315 232.480333,49.952 C232.480333,49.688 232.260333,49.512 231.985333,49.512 C231.578333,49.512 231.160333,49.853 230.775333,50.172 C230.753333,50.161 230.742333,50.128 230.742333,50.073 L230.742333,49.435 C230.742333,49.391 230.709333,49.369 230.654333,49.358 C230.379333,49.523 229.796333,49.809 229.543333,49.897 C229.488333,49.93 229.488333,50.051 229.532333,50.095 L229.631333,50.161 C229.898633,50.3392 229.925363,50.40157 229.928036,50.725003 L229.928333,52.768 C229.928333,53.56 229.917333,53.659 229.510333,53.725 L229.301333,53.758 C229.224333,53.813 229.246333,54 229.323333,54.033 C229.609333,54.011 229.939333,54 230.335333,54 C230.720333,54 231.039333,54.011 231.556333,54.033 Z M237.811,54.154 C238.383,54.154 239.175,53.879 239.538,53.131 C239.527,53.032 239.45,52.966 239.34,52.999 C238.999,53.428 238.691,53.538 238.328,53.538 C237.151,53.538 236.502,52.592 236.502,51.481 C236.502,51.206 236.513,51.184 236.799,51.184 L238.834,51.184 C239.296,51.184 239.45,51.173 239.483,51.107 C239.505,51.063 239.527,50.975 239.527,50.821 C239.527,50.161 238.911,49.512 237.965,49.512 C236.645,49.512 235.754,50.645 235.754,51.998 C235.754,52.482 235.886,52.999 236.216,53.428 C236.535,53.846 237.096,54.154 237.811,54.154 Z M237.646826,50.8533345 L236.7,50.854 C236.623,50.854 236.623,50.821 236.623,50.799 C236.634,50.436 237.195,49.842 237.844,49.842 C238.482,49.842 238.691,50.227 238.691,50.535 C238.691,50.678 238.658,50.722 238.625,50.744 C238.543286,50.8052857 238.328786,50.847602 237.646826,50.8533345 L237.646826,50.8533345 Z M248.069667,56.838 C248.146667,56.805 248.168667,56.618 248.091667,56.563 L247.772667,56.508 C247.387667,56.442 247.354667,56.365 247.354667,55.573 L247.354667,50.942 C247.354667,50.249 247.376667,49.875 247.442667,49.611 C247.420667,49.556 247.376667,49.512 247.321667,49.512 C247.200667,49.622 247.112667,49.699 247.024667,49.699 C246.925667,49.699 246.804667,49.666 246.639667,49.622 C246.485667,49.578 246.089667,49.512 245.726667,49.512 C244.307667,49.512 243.086667,50.403 243.086667,51.998 C243.086667,52.856 243.680667,54.154 245.319667,54.154 C245.748667,54.154 246.155667,54.044 246.441667,53.879 C246.529667,53.879 246.540667,53.934 246.540667,54.143 L246.540667,55.573 C246.540667,56.365 246.529667,56.486 246.122667,56.53 L245.781667,56.563 C245.704667,56.618 245.726667,56.805 245.803667,56.838 C246.221667,56.816 246.551667,56.805 246.947667,56.805 C247.332667,56.805 247.651667,56.816 248.069667,56.838 Z M245.748667,53.714 C244.714667,53.714 244.010667,52.856 244.010667,51.646 C244.010667,50.612 244.615667,49.853 245.451667,49.853 C245.924667,49.853 246.243667,50.084 246.397667,50.359 C246.485667,50.524 246.540667,50.887 246.540667,51.459 L246.540667,53.098 C246.540667,53.34 246.518667,53.472 246.463667,53.538 C246.408667,53.604 246.232667,53.714 245.748667,53.714 Z M255.160333,54.264 C255.534333,54.055 256.172333,53.945 256.601333,53.857 C256.689333,53.813 256.678333,53.593 256.612333,53.538 C256.458333,53.571 256.315333,53.593 256.183333,53.593 C255.895867,53.593 255.847956,53.3055333 255.842845,52.5606753 L255.842333,50.546 C255.842333,50.139 255.853333,49.798 255.875333,49.589 C255.864333,49.545 255.831333,49.523 255.776333,49.512 C255.534333,49.622 254.929333,49.699 254.489333,49.71 C254.401333,49.754 254.401333,49.908 254.478333,49.952 L254.621333,50.007 C254.951333,50.139 255.028333,50.161 255.028333,50.876 L255.028333,52.68 C255.028333,53.021 254.951333,53.186 254.808333,53.318 C254.566333,53.527 254.214333,53.648 253.917333,53.648 C253.081333,53.648 252.894333,53.142 252.894333,52.383 L252.894333,50.546 C252.894333,50.007 252.905333,49.776 252.927333,49.589 C252.916333,49.545 252.883333,49.523 252.817333,49.512 C252.575333,49.6 252.146333,49.699 251.640333,49.71 C251.563333,49.743 251.552333,49.897 251.618333,49.952 L251.750333,50.007 C252.056762,50.1397857 252.07865,50.2346327 252.080213,50.8023593 L252.080333,52.779 C252.080333,53.67 252.443333,54.154 253.411333,54.154 C254.060333,54.154 254.599333,53.791 254.929333,53.582 C254.995333,53.582 255.028333,53.637 255.028333,53.736 L255.028333,54.187 C255.050333,54.231 255.105333,54.264 255.160333,54.264 Z M262.196,54.154 C262.768,54.154 263.56,53.879 263.923,53.131 C263.912,53.032 263.835,52.966 263.725,52.999 C263.384,53.428 263.076,53.538 262.713,53.538 C261.536,53.538 260.887,52.592 260.887,51.481 C260.887,51.206 260.898,51.184 261.184,51.184 L263.219,51.184 C263.681,51.184 263.835,51.173 263.868,51.107 C263.89,51.063 263.912,50.975 263.912,50.821 C263.912,50.161 263.296,49.512 262.35,49.512 C261.03,49.512 260.139,50.645 260.139,51.998 C260.139,52.482 260.271,52.999 260.601,53.428 C260.92,53.846 261.481,54.154 262.196,54.154 Z M262.031826,50.8533345 L261.085,50.854 C261.008,50.854 261.008,50.821 261.008,50.799 C261.019,50.436 261.58,49.842 262.229,49.842 C262.867,49.842 263.076,50.227 263.076,50.535 C263.076,50.678 263.043,50.722 263.01,50.744 C262.928286,50.8052857 262.713786,50.847602 262.031826,50.8533345 Z M268.725667,54.154 C269.539667,54.154 270.309667,53.736 270.309667,52.9 C270.309667,52.119 269.770667,51.745 269.187667,51.415 C268.802667,51.195 268.340667,50.953 268.340667,50.502 C268.340667,50.106 268.615667,49.831 269.044667,49.831 C269.495667,49.831 269.825667,50.15 270.012667,50.634 C270.067667,50.7 270.232667,50.678 270.276667,50.601 C270.276667,50.304 270.199667,49.952 270.100667,49.71 C270.001667,49.622 269.594667,49.512 269.132667,49.512 C268.296667,49.512 267.636667,49.963 267.636667,50.766 C267.636667,51.371 268.087667,51.756 268.725667,52.119 C269.132667,52.35 269.572667,52.625 269.572667,53.131 C269.572667,53.604 269.231667,53.835 268.835667,53.835 C268.208667,53.835 267.856667,53.307 267.669667,52.702 C267.614667,52.636 267.471667,52.647 267.416667,52.713 C267.394667,53.076 267.460667,53.615 267.548667,53.824 C267.823667,54.044 268.208667,54.154 268.725667,54.154 Z M275.728333,54.154 C276.289333,54.154 276.685333,53.879 276.883333,53.648 C276.905333,53.582 276.861333,53.461 276.773333,53.461 C276.740333,53.461 276.597333,53.582 276.498333,53.615 C276.410333,53.648 276.311333,53.67 276.201333,53.67 C275.475333,53.67 275.398333,53.087 275.398333,52.449 L275.398333,50.392 C275.398333,50.161 275.409333,50.128 275.596333,50.128 L276.839333,50.128 C276.938333,50.062 276.960333,49.765 276.828333,49.666 L275.607333,49.666 C275.420333,49.666 275.409333,49.655 275.409333,49.457 L275.409333,48.962 C275.365333,48.885 275.233333,48.885 275.178333,48.907 C275.068333,49.127 274.859333,49.424 274.716333,49.556 C274.606333,49.655 274.331333,49.798 274.012333,49.897 C273.968333,49.963 273.979333,50.084 274.045333,50.128 L274.353333,50.128 C274.573333,50.128 274.584333,50.15 274.584333,50.447 L274.584333,52.966 C274.584333,53.626 274.782333,54.154 275.728333,54.154 Z M281.345,54.154 C281.719,54.154 281.961,53.901 281.961,53.549 C281.961,53.197 281.719,52.9 281.345,52.9 C280.993,52.9 280.729,53.175 280.729,53.549 C280.729,53.923 281.026,54.154 281.345,54.154 Z" id="fullportfolioisavailableuponrequest."></path>
                <path d="M30.8613333,13.252 C31.6173333,13.252 33.3093333,12.154 34.3173333,10.66 C34.3533333,10.444 34.2453333,10.336 34.0653333,10.336 C33.4713333,11.02 32.2833333,11.956 32.0133333,11.956 C31.8693333,11.956 31.7793333,11.848 31.8873333,11.506 L33.5073333,6.772 L35.4693333,6.772 C35.7033333,6.646 35.8113333,6.286 35.6853333,6.106 L33.7233333,6.106 L34.2453333,4.342 C34.1013333,4.162 33.7413333,4.126 33.5613333,4.234 L32.5533333,6.016 L31.1133333,6.268 C30.9333333,6.34 30.8793333,6.592 30.9153333,6.772 L32.3193333,6.772 L30.6273333,11.74 C30.4473333,12.28 30.3753333,12.532 30.3753333,12.766 C30.3753333,12.982 30.6093333,13.252 30.8613333,13.252 Z M43.24,13.252 C43.474,13.252 43.96,13.144 44.554,12.55 C45.022,12.082 45.382,11.686 45.724,11.074 C46.372,9.922 47.128,8.104 47.128,6.862 C47.128,6.232 46.84,5.656 46.048,5.656 C45.562,5.656 44.986,5.89 44.338,6.358 C43.69,6.826 42.754,7.546 41.494,9.328 L41.458,9.292 L43.312,3.91 C43.672,2.884 44.248,1.246 44.608,0.238 L44.536,0.13 C43.906,0.166 42.718,0.418 42.43,0.544 C42.34,0.616 42.34,0.688 42.376,0.778 L42.754,1.03 C43.042,1.228 42.952,1.48 42.556,2.668 L39.136,12.784 C38.992,13.198 39.46,13.252 39.658,13.252 C39.82,13.252 39.91,13.18 39.982,13.036 C40.45,12.118 41.35,10.372 42.16,9.292 C43.096,8.068 43.69,7.474 44.446,6.898 C44.788,6.628 45.166,6.412 45.418,6.412 C45.67,6.412 45.796,6.61 45.796,6.952 C45.796,7.942 44.986,10.426 44.5,11.596 C44.23,12.226 44.05,12.496 43.78,12.496 C43.654,12.496 43.456,12.37 43.312,12.262 C43.222,12.19 43.132,12.154 43.06,12.154 C42.826,12.154 42.574,12.424 42.574,12.73 C42.574,12.874 42.646,13.252 43.24,13.252 Z M56.0326667,13.252 C57.0226667,13.252 58.3006667,12.244 59.0566667,11.236 C59.0566667,11.092 58.9306667,11.002 58.8046667,11.002 C57.7786667,11.902 57.2566667,12.208 56.9506667,12.208 C56.8066667,12.208 56.7166667,12.1 56.8246667,11.794 C57.4006667,10.156 58.9666667,6.178 59.2366667,5.512 C59.1286667,5.278 58.6606667,5.098 58.3546667,5.242 L57.8506667,6.394 C57.7606667,6.214 57.5626667,6.052 57.4906667,6.016 C57.3826667,5.962 57.2566667,5.908 57.0586667,5.908 C56.5906667,5.908 56.1406667,6.034 55.4386667,6.43 C54.7006667,6.844 53.9266667,7.564 53.0626667,8.752 C51.8746667,10.39 51.4786667,11.83 51.4786667,12.244 C51.4786667,12.748 51.7666667,13.252 52.2706667,13.252 C53.1166667,13.252 54.9526667,12.01 56.2306667,10.426 L56.2846667,10.444 L55.6906667,12.064 C55.5466667,12.478 55.5106667,12.64 55.5106667,12.766 C55.5106667,12.91 55.6186667,13.252 56.0326667,13.252 Z M53.2426667,12.298 C53.0806667,12.298 52.9726667,12.172 52.9726667,11.956 C52.9726667,10.678 54.0706667,8.32 55.2226667,7.294 C55.7806667,6.79 56.0686667,6.592 56.5006667,6.592 C56.9686667,6.592 57.2746667,6.898 57.4006667,7.24 C57.1126667,8.302 56.3566667,9.85 54.9886667,11.128 C53.9626667,12.064 53.4226667,12.298 53.2426667,12.298 Z M68.7533333,13.252 C69.7433333,13.252 71.1653333,12.388 71.8493333,11.236 C71.8493333,11.092 71.8133333,10.948 71.5613333,10.984 C71.0393333,11.614 70.1753333,12.208 69.8693333,12.208 C69.7433333,12.208 69.7613333,12.046 69.8333333,11.866 C69.8873333,11.722 71.1833333,8.788 71.5073333,7.888 C71.6513333,7.474 71.7953333,6.916 71.7953333,6.628 C71.7953333,6.034 71.4893333,5.656 70.7873333,5.656 C69.4373333,5.656 67.6553333,7.636 66.3773333,9.58 L66.3233333,9.544 L67.5473333,6.394 C67.7093333,5.98 67.5113333,5.656 67.0793333,5.656 C66.1793333,5.656 65.0813333,6.394 64.3973333,7.33 C64.3793333,7.474 64.4693333,7.6 64.6133333,7.6 C65.2073333,7.078 65.8373333,6.7 66.2513333,6.7 C66.3953333,6.7 66.3953333,6.88 66.3053333,7.114 C66.2646882,7.22780645 65.8532542,8.34751509 65.4059375,9.56291115 L65.2130099,10.0869999 C64.7300805,11.3985994 64.2608817,12.6707742 64.2173333,12.784 C64.0553333,13.198 64.5413333,13.252 64.7393333,13.252 C64.9013333,13.252 64.9733333,13.198 65.0633333,13.036 C66.1253333,11.056 66.8633333,9.652 67.8173333,8.464 C68.8073333,7.222 69.8693333,6.322 70.3013333,6.322 C70.5713333,6.322 70.5893333,6.538 70.5893333,6.754 C70.5893333,7.114 70.3553333,7.744 70.2113333,8.068 C69.7973333,8.968 69.1313333,10.732 68.7533333,11.614 C68.3753333,12.514 68.3213333,12.64 68.3213333,12.802 C68.3213333,13.018 68.5913333,13.252 68.7533333,13.252 Z M81.708,13.252 C81.996,13.252 82.896,12.892 83.526,11.542 C83.526,11.398 83.454,11.326 83.292,11.326 C82.788,11.938 82.446,12.172 82.212,12.172 C82.032,12.172 81.852,11.974 81.636,11.578 C81.438,11.2 81.114,10.408 80.97,9.886 C80.934,9.778 80.898,9.616 81.024,9.544 C82.176,9.346 83.058,8.734 83.904,7.96 C84.57,7.348 84.642,6.862 84.642,6.646 C84.642,6.268 84.39,5.656 83.346,5.656 C82.572,5.656 81.906,5.98 81.402,6.34 C80.682,6.88 80.088,7.492 79.566,8.194 L79.53,8.194 L81.384,2.866 C81.924,1.336 82.122,0.724 82.266,0.22 L82.158,0.13 C81.384,0.274 80.502,0.526 79.962,0.778 C79.872,0.868 79.89,0.976 79.998,1.048 L80.322,1.21 C80.628,1.354 80.61,1.588 80.196,2.848 L76.902,12.784 C76.758,13.198 77.28,13.252 77.478,13.252 C77.64,13.252 77.712,13.18 77.784,13.018 L78.72,10.732 C78.936,10.192 79.026,10.102 79.386,10.012 C79.71,9.94 79.908,10.138 80.052,10.606 C80.214,11.092 80.664,12.136 80.88,12.532 C81.168,13.036 81.384,13.252 81.708,13.252 Z M79.278,9.31 C79.512,8.788 80.268,7.906 80.934,7.348 C81.546,6.826 82.212,6.43 82.68,6.43 C83.094,6.43 83.256,6.682 83.256,6.898 C83.256,7.276 82.86,7.906 82.104,8.41 C80.844,9.238 79.836,9.544 79.458,9.58 C79.224,9.616 79.206,9.49 79.278,9.31 Z M89.4426667,13.252 C90.1266667,13.252 90.7926667,13.018 91.2606667,12.604 C91.9266667,12.028 92.1786667,11.362 92.1966667,10.876 C92.2326667,10.084 91.9626667,9.634 91.5126667,8.878 C90.9906667,7.996 90.9006667,7.618 90.9006667,7.24 C90.9006667,6.97 91.1166667,6.52 91.6386667,6.52 C92.1966667,6.52 92.4306667,6.79 92.7366667,7.096 C92.8446667,7.24 92.9526667,7.276 93.0786667,7.24 C93.2226667,7.168 93.4026667,6.97 93.4026667,6.682 C93.4026667,6.232 92.9886667,5.656 92.3226667,5.656 C92.0886667,5.656 91.5126667,5.8 90.9906667,6.25 C90.2166667,6.916 89.9106667,7.438 89.9106667,8.14 C89.9106667,8.446 90.0726667,9.058 90.5406667,9.814 C90.9906667,10.534 91.2066667,11.092 91.2066667,11.398 C91.2066667,11.974 90.7746667,12.424 90.3426667,12.424 C89.8746667,12.424 89.3346667,11.974 89.1006667,11.704 C88.9566667,11.578 88.7586667,11.578 88.6146667,11.704 C88.4166667,11.92 88.3446667,12.118 88.3446667,12.298 C88.3446667,12.712 88.7586667,13.252 89.4426667,13.252 Z M102.53,17.842 C103.592,17.842 104.42,17.122 104.69,16.87 C105.05,16.51 105.644,15.592 106.112,13.972 C106.688,11.992 107.174,10.264 107.714,8.248 C107.93,7.456 108.074,6.88 108.182,6.574 L110.414,6.574 C110.684,6.376 110.72,6.106 110.594,5.908 L108.344,5.908 C108.83,4.198 109.19,2.92 110.018,1.714 C110.432,1.102 110.918,0.742 111.314,0.742 C111.764,0.742 112.268,1.066 112.322,2.056 C112.34,2.182 112.412,2.344 112.574,2.344 C112.862,2.344 113.348,1.786 113.348,1.318 C113.348,0.598 112.628,0.13 111.962,0.13 C110.918,0.13 109.982,0.562 109.082,1.624 C108.02,2.884 107.534,4.288 107.066,5.908 L105.518,5.908 C105.284,6.07 105.212,6.412 105.392,6.574 L106.886,6.574 C106.022,9.508 105.392,12.604 104.564,15.448 C104.15,16.834 103.772,16.96 103.412,16.96 C103.016,16.96 102.476,16.672 102.044,16.222 C101.936,16.096 101.774,16.042 101.63,16.15 C101.432,16.294 101.216,16.6 101.216,16.96 C101.216,17.23 101.558,17.842 102.53,17.842 Z M115.412667,13.252 C115.898667,13.252 116.870667,13.162 117.986667,12.01 C119.318667,10.642 119.840667,8.914 119.894667,7.924 C119.966667,6.61 119.336667,5.656 118.058667,5.656 C117.320667,5.656 116.510667,5.926 115.574667,6.826 C114.350667,7.996 113.684667,9.742 113.612667,10.858 C113.504667,12.406 114.260667,13.252 115.412667,13.252 Z M115.556667,12.712 C115.034667,12.712 114.782667,12.19 114.818667,11.56 C114.872667,10.606 115.574667,8.464 116.618667,7.06 C117.140667,6.358 117.572667,6.196 117.932667,6.196 C118.562667,6.196 118.670667,6.826 118.652667,7.384 C118.616667,8.338 117.770667,10.714 116.978667,11.776 C116.402667,12.55 115.952667,12.712 115.556667,12.712 Z M124.829333,13.252 C124.973333,13.252 125.063333,13.18 125.135333,13.036 C126.089333,10.966 127.097333,8.77 128.195333,7.366 C128.465333,7.006 128.663333,6.826 128.825333,6.826 C129.005333,6.826 129.113333,7.06 129.203333,7.528 C129.275333,7.906 129.563333,7.888 129.779333,7.618 C129.995333,7.33 130.157333,6.808 130.157333,6.538 C130.157333,6.268 130.067333,5.656 129.437333,5.656 C128.987333,5.656 128.537333,6.052 128.123333,6.592 C127.655333,7.186 126.773333,8.626 126.233333,9.634 L126.143333,9.634 L126.917333,7.366 C127.079333,6.88 127.403333,5.656 126.503333,5.656 C125.639333,5.656 124.955333,6.412 124.379333,7.384 C124.361333,7.6 124.487333,7.708 124.667333,7.672 C124.991333,7.24 125.477333,6.736 125.945333,6.736 C126.107333,6.736 126.143333,6.916 126.089333,7.114 C125.603333,8.878 124.469333,12.064 124.235333,12.784 C124.109333,13.18 124.631333,13.252 124.829333,13.252 Z M140.462667,13.252 C141.146667,13.252 141.812667,13.018 142.280667,12.604 C142.946667,12.028 143.198667,11.362 143.216667,10.876 C143.252667,10.084 142.982667,9.634 142.532667,8.878 C142.010667,7.996 141.920667,7.618 141.920667,7.24 C141.920667,6.97 142.136667,6.52 142.658667,6.52 C143.216667,6.52 143.450667,6.79 143.756667,7.096 C143.864667,7.24 143.972667,7.276 144.098667,7.24 C144.242667,7.168 144.422667,6.97 144.422667,6.682 C144.422667,6.232 144.008667,5.656 143.342667,5.656 C143.108667,5.656 142.532667,5.8 142.010667,6.25 C141.236667,6.916 140.930667,7.438 140.930667,8.14 C140.930667,8.446 141.092667,9.058 141.560667,9.814 C142.010667,10.534 142.226667,11.092 142.226667,11.398 C142.226667,11.974 141.794667,12.424 141.362667,12.424 C140.894667,12.424 140.354667,11.974 140.120667,11.704 C139.976667,11.578 139.778667,11.578 139.634667,11.704 C139.436667,11.92 139.364667,12.118 139.364667,12.298 C139.364667,12.712 139.778667,13.252 140.462667,13.252 Z M149.493333,13.252 C150.249333,13.252 151.941333,12.154 152.949333,10.66 C152.985333,10.444 152.877333,10.336 152.697333,10.336 C152.103333,11.02 150.915333,11.956 150.645333,11.956 C150.501333,11.956 150.411333,11.848 150.519333,11.506 L152.139333,6.772 L154.101333,6.772 C154.335333,6.646 154.443333,6.286 154.317333,6.106 L152.355333,6.106 L152.877333,4.342 C152.733333,4.162 152.373333,4.126 152.193333,4.234 L151.185333,6.016 L149.745333,6.268 C149.565333,6.34 149.511333,6.592 149.547333,6.772 L150.951333,6.772 L149.259333,11.74 C149.079333,12.28 149.007333,12.532 149.007333,12.766 C149.007333,12.982 149.241333,13.252 149.493333,13.252 Z M159.32,13.252 C159.806,13.252 160.778,13.162 161.894,12.01 C163.226,10.642 163.748,8.914 163.802,7.924 C163.874,6.61 163.244,5.656 161.966,5.656 C161.228,5.656 160.418,5.926 159.482,6.826 C158.258,7.996 157.592,9.742 157.52,10.858 C157.412,12.406 158.168,13.252 159.32,13.252 Z M159.464,12.712 C158.942,12.712 158.69,12.19 158.726,11.56 C158.78,10.606 159.482,8.464 160.526,7.06 C161.048,6.358 161.48,6.196 161.84,6.196 C162.47,6.196 162.578,6.826 162.56,7.384 C162.524,8.338 161.678,10.714 160.886,11.776 C160.31,12.55 159.86,12.712 159.464,12.712 Z M164.940667,17.842 C166.146667,17.806 167.496667,17.734 168.864667,17.734 C169.026667,17.662 169.026667,17.464 168.936667,17.338 L168.198667,17.23 C167.604667,17.14 167.568667,16.978 168.054667,15.592 L168.792667,13.468 C168.846667,13.288 168.936667,13.18 169.080667,13.144 C169.332667,13.216 169.476667,13.252 169.638667,13.252 C169.710667,13.252 171.078667,13.18 172.212667,12.226 C173.580667,11.074 174.588667,9.616 174.588667,7.96 C174.588667,6.25 172.968667,5.908 172.140667,5.908 C171.798667,5.908 171.600667,5.944 171.456667,5.944 L171.834667,4.846 C171.762667,4.576 171.042667,4.396 170.808667,4.594 L170.268667,6.052 C169.386667,6.286 168.666667,6.592 168.036667,7.042 C167.982667,7.204 168.072667,7.366 168.216667,7.384 C168.972667,7.006 169.386667,6.826 170.034667,6.646 L166.686667,16.042 C166.416667,16.78 166.344667,17.194 165.336667,17.374 L164.940667,17.446 C164.814667,17.554 164.814667,17.734 164.940667,17.842 Z M170.124667,12.64 C169.836667,12.64 169.566667,12.406 169.458667,12.226 C169.386667,12.118 169.368667,11.938 169.440667,11.74 L171.312667,6.484 C171.438667,6.466 171.582667,6.448 171.780667,6.448 C172.554667,6.448 173.202667,6.898 173.202667,7.798 C173.202667,8.59 173.004667,9.85 172.140667,11.182 C171.366667,12.388 170.358667,12.64 170.124667,12.64 Z M176.281333,17.842 C177.487333,17.806 178.837333,17.734 180.205333,17.734 C180.367333,17.662 180.367333,17.464 180.277333,17.338 L179.539333,17.23 C178.945333,17.14 178.909333,16.978 179.395333,15.592 L180.133333,13.468 C180.187333,13.288 180.277333,13.18 180.421333,13.144 C180.673333,13.216 180.817333,13.252 180.979333,13.252 C181.051333,13.252 182.419333,13.18 183.553333,12.226 C184.921333,11.074 185.929333,9.616 185.929333,7.96 C185.929333,6.25 184.309333,5.908 183.481333,5.908 C183.139333,5.908 182.941333,5.944 182.797333,5.944 L183.175333,4.846 C183.103333,4.576 182.383333,4.396 182.149333,4.594 L181.609333,6.052 C180.727333,6.286 180.007333,6.592 179.377333,7.042 C179.323333,7.204 179.413333,7.366 179.557333,7.384 C180.313333,7.006 180.727333,6.826 181.375333,6.646 L178.027333,16.042 C177.757333,16.78 177.685333,17.194 176.677333,17.374 L176.281333,17.446 C176.155333,17.554 176.155333,17.734 176.281333,17.842 Z M181.465333,12.64 C181.177333,12.64 180.907333,12.406 180.799333,12.226 C180.727333,12.118 180.709333,11.938 180.781333,11.74 L182.653333,6.484 C182.779333,6.466 182.923333,6.448 183.121333,6.448 C183.895333,6.448 184.543333,6.898 184.543333,7.798 C184.543333,8.59 184.345333,9.85 183.481333,11.182 C182.707333,12.388 181.699333,12.64 181.465333,12.64 Z M193.868,3.748 C194.408,3.748 194.804,3.19 194.804,2.632 C194.804,2.236 194.606,1.948 194.192,1.948 C193.49,1.948 193.238,2.686 193.238,3.082 C193.238,3.388 193.4,3.748 193.868,3.748 Z M190.736,13.252 C191.978,13.252 193.832,11.632 194.102,11.11 C194.102,10.948 194.012,10.822 193.832,10.804 C193.22,11.506 192.266,12.136 191.96,12.136 C191.816,12.136 191.834,11.92 191.906,11.74 L194.048,6.628 C194.264,6.106 194.264,5.944 194.156,5.836 C194.084,5.764 193.994,5.656 193.868,5.656 C193.274,5.656 191.888,6.322 190.898,7.456 C190.862,7.6 190.97,7.744 191.132,7.762 C192.032,7.024 192.5,6.808 192.626,6.808 C192.752,6.808 192.752,6.952 192.662,7.15 L190.376,12.604 C190.286,12.802 190.34,12.964 190.448,13.09 C190.538,13.198 190.646,13.252 190.736,13.252 Z M204.086667,13.252 C205.076667,13.252 206.498667,12.388 207.182667,11.236 C207.182667,11.092 207.146667,10.948 206.894667,10.984 C206.372667,11.614 205.508667,12.208 205.202667,12.208 C205.076667,12.208 205.094667,12.046 205.166667,11.866 C205.196667,11.786 205.61,10.8448889 206.027037,9.86982716 L206.19315,9.47995245 C206.467333,8.83367901 206.720667,8.22133333 206.840667,7.888 C206.984667,7.474 207.128667,6.916 207.128667,6.628 C207.128667,6.034 206.822667,5.656 206.120667,5.656 C204.770667,5.656 202.988667,7.636 201.710667,9.58 L201.656667,9.544 L202.880667,6.394 C203.042667,5.98 202.844667,5.656 202.412667,5.656 C201.512667,5.656 200.414667,6.394 199.730667,7.33 C199.712667,7.474 199.802667,7.6 199.946667,7.6 C200.540667,7.078 201.170667,6.7 201.584667,6.7 C201.728667,6.7 201.728667,6.88 201.638667,7.114 C201.595118,7.23593548 201.12592,8.51260562 200.64299,9.82448605 L200.450062,10.3484624 C200.002746,11.5630718 199.591312,12.6783226 199.550667,12.784 C199.388667,13.198 199.874667,13.252 200.072667,13.252 C200.234667,13.252 200.306667,13.198 200.396667,13.036 C201.458667,11.056 202.196667,9.652 203.150667,8.464 C204.140667,7.222 205.202667,6.322 205.634667,6.322 C205.904667,6.322 205.922667,6.538 205.922667,6.754 C205.922667,7.114 205.688667,7.744 205.544667,8.068 C205.130667,8.968 204.464667,10.732 204.086667,11.614 C203.708667,12.514 203.654667,12.64 203.654667,12.802 C203.654667,13.018 203.924667,13.252 204.086667,13.252 Z M213.405333,17.842 C216.339333,17.842 217.797333,16.708 217.797333,15.7 C217.797333,15.124 217.491333,14.566 216.447333,13.954 C215.799333,13.558 215.097333,13.162 214.683333,12.874 C214.215333,12.568 214.089333,12.244 214.089333,12.028 C214.089333,11.758 214.287333,11.506 214.485333,11.398 C214.881333,11.29 215.565333,11.056 215.763333,10.93 C217.005333,10.156 218.049333,8.788 218.049333,7.33 C218.049333,7.078 217.959333,6.79 217.923333,6.646 C217.905333,6.592 217.995333,6.538 218.085333,6.538 C218.211333,6.538 218.589333,6.592 218.751333,6.646 C218.913333,6.682 219.165333,6.736 219.345333,6.736 C219.525333,6.736 219.741333,6.592 219.741333,6.178 C219.741333,5.908 219.615333,5.728 219.363333,5.728 C219.237333,5.728 218.895333,5.782 218.553333,5.872 C218.211333,5.962 217.851333,5.98 217.689333,5.98 C217.617333,5.98 217.455333,5.89 217.257333,5.818 C217.059333,5.746 216.861333,5.656 216.681333,5.656 C215.727333,5.656 214.881333,5.998 214.017333,6.736 C213.117333,7.528 212.559333,8.752 212.559333,9.76 C212.559333,10.966 213.531333,11.29 213.873333,11.38 C213.621333,11.704 213.063333,12.442 213.063333,12.766 C213.063333,13.018 213.171333,13.288 213.639333,13.594 C212.667333,13.9 210.561333,14.764 210.561333,16.132 C210.561333,17.338 212.091333,17.842 213.405333,17.842 Z M214.179333,10.858 C213.891333,10.858 213.639333,10.606 213.639333,10.228 C213.639333,9.31 214.557333,7.726 215.259333,6.916 C215.817333,6.304 216.159333,6.178 216.465333,6.178 C216.735333,6.178 217.005333,6.412 217.005333,6.79 C217.005333,7.366 216.375333,8.968 215.367333,10.156 C214.863333,10.75 214.431333,10.858 214.179333,10.858 Z M214.233333,17.248 C213.009333,17.248 211.803333,16.708 211.803333,15.862 C211.803333,15.448 212.001333,15.052 212.487333,14.692 C213.009333,14.314 213.711333,13.972 214.161333,14.026 C214.449333,14.062 215.079333,14.422 215.835333,14.926 C216.411333,15.322 216.609333,15.718 216.609333,16.024 C216.609333,16.888 215.061333,17.248 214.233333,17.248 Z M230.876667,13.252 C231.506667,13.252 232.838667,12.928 234.314667,11.506 C235.772667,10.084 236.636667,8.518 236.636667,7.276 C236.636667,6.358 236.150667,5.656 235.088667,5.656 C233.738667,5.656 232.532667,6.88 231.272667,8.788 L231.236667,8.788 L233.576667,2.632 C233.846667,1.93 234.116667,1.246 234.494667,0.238 L234.422667,0.13 C233.594667,0.112 232.604667,0.346 232.262667,0.472 C232.190667,0.544 232.172667,0.652 232.208667,0.724 L232.622667,1.012 C232.874667,1.192 232.820667,1.498 232.442667,2.506 L230.354667,8.05 C229.832667,9.454 229.436667,10.75 229.436667,11.596 C229.436667,12.622 229.904667,13.252 230.876667,13.252 Z M231.272667,12.694 C230.966667,12.694 230.642667,12.46 230.642667,11.758 C230.642667,10.93 231.200667,9.454 232.334667,8.158 C233.450667,6.88 234.332667,6.268 234.818667,6.268 C235.142667,6.268 235.448667,6.43 235.448667,6.916 C235.448667,7.942 234.116667,10.228 233.000667,11.488 C232.226667,12.352 231.542667,12.694 231.272667,12.694 Z M238.887333,17.842 C239.463333,17.842 240.363333,17.554 241.695333,16.024 C243.135333,14.386 243.783333,13.198 244.665333,11.704 C246.285333,8.986 246.771333,6.664 246.753333,6.214 C246.753333,6.016 246.699333,5.926 246.591333,5.854 C246.447333,5.764 246.213333,5.692 246.087333,5.692 C245.961333,5.692 245.691333,5.728 245.655333,6.25 C245.637333,6.718 245.367333,8.536 244.989333,9.58 C244.593333,10.678 244.071333,11.794 243.477333,12.676 L243.405333,12.676 C243.657333,11.182 243.693333,9.868 243.675333,8.716 C243.639333,7.456 243.495333,5.656 242.577333,5.656 C241.695333,5.656 240.903333,6.772 240.525333,7.978 C240.561333,8.14 240.669333,8.266 240.867333,8.212 C241.245333,7.456 241.551333,6.844 241.911333,6.844 C242.253333,6.844 242.559333,7.546 242.595333,9.544 C242.613333,11.074 242.487333,12.73 242.235333,13.648 C241.893333,14.836 241.101333,15.97 240.651333,16.348 C240.219333,16.708 239.895333,16.852 239.661333,16.852 C239.373333,16.852 239.211333,16.618 239.157333,16.528 C239.031333,16.348 238.851333,16.24 238.671333,16.24 C238.275333,16.24 237.951333,16.564 237.951333,17.014 C237.951333,17.464 238.311333,17.842 238.887333,17.842 Z M250.69,13.252 C251.212,13.252 251.716,12.82 251.716,12.1 C251.716,11.686 251.446,11.29 250.924,11.29 C250.402,11.29 249.898,11.758 249.898,12.406 C249.898,12.928 250.186,13.252 250.69,13.252 Z" id="thanksforstoppingby."></path>
            </g>
        </g>
    </g>
</svg>