<?xml version="1.0" encoding="UTF-8"?>
<svg width="141px" height="16px" viewBox="0 0 141 16" version="1.1" xmlns="http://www.w3.org/2000/svg" xmlns:xlink="http://www.w3.org/1999/xlink">
    <title>Group</title>
    <g id="Page-1" stroke="none" stroke-width="1" fill="none" fill-rule="evenodd">
        <g id="Group">
            <path d="M51.464,13.664 C51.672,13.232 52.072,12 52.184,11.44 C52.12,11.296 51.896,11.248 51.784,11.328 C51.368,12.16 50.936,12.72 50.648,12.88 C50.296,13.056 49.832,13.12 48.6,13.12 C47.192,13.12 46.856,12.944 46.664,12.752 C46.408,12.48 46.36,11.936 46.36,11.088 L46.36,8.832 C46.36,8.416 46.408,8.4 46.888,8.4 L47.816,8.4 C48.44,8.4 48.824,8.416 49.048,8.48 C49.368,8.56 49.48,8.8 49.544,9.088 L49.688,9.712 C49.768,9.808 50.04,9.808 50.104,9.696 C50.104,9.344 50.04,8.736 50.04,8.16 C50.04,7.552 50.104,6.928 50.104,6.544 C50.04,6.432 49.768,6.432 49.688,6.528 L49.56,7.184 C49.48,7.584 49.368,7.68 49.176,7.744 C49.0032,7.8016 48.58416,7.83328 48.012192,7.83904 L46.888,7.84 C46.408,7.84 46.36,7.84 46.36,7.392 L46.36,4.192 C46.36,3.584 46.36,3.552 46.84,3.552 L47.992,3.552 C48.696,3.552 49.208,3.568 49.544,3.648 C50.376,3.856 50.52,4.416 50.76,5.168 C50.84,5.264 51.096,5.232 51.16,5.136 C51.096,4.432 51,3.28 50.904,3.008 C50.7632,3.0432 50.2179911,3.05258667 49.5333902,3.05508978 L45.736,3.056 C45.08,3.056 44.536,3.04 43.848,3.008 C43.752,3.056 43.72,3.344 43.816,3.408 L44.072,3.44 C45.016,3.552 45.048,3.792 45.048,5.456 L45.048,11.216 C45.048,12.896 44.968,13.136 44.056,13.216 L43.528,13.264 C43.432,13.36 43.464,13.616 43.56,13.664 C44.504,13.632 45.048,13.616 45.736,13.616 L47.176,13.616 C48.6,13.616 50.024,13.632 51.464,13.664 Z M65.0266667,13.776 C65.0906667,13.776 65.1546667,13.76 65.1866667,13.712 C65.4746667,12.976 66.1946667,11.472 66.9146667,10.064 L68.3386667,7.264 C68.6586667,6.64 69.2666667,5.36 69.3786667,5.184 L69.4106667,5.184 L69.4586667,11.856 C69.4586667,12.88 69.4586667,13.136 68.6746667,13.216 L68.2106667,13.264 C68.1146667,13.36 68.1306667,13.584 68.2426667,13.664 C68.8986667,13.632 69.6186667,13.616 70.1786667,13.616 C70.7546667,13.616 71.4106667,13.632 72.0666667,13.664 C72.1786667,13.6 72.1946667,13.36 72.0986667,13.264 L71.5866667,13.216 C70.8346667,13.152 70.8506667,12.72 70.8026667,11.92 C70.6746667,9.616 70.6586667,6.656 70.6266667,4.96 C70.6106667,3.84 70.7386667,3.536 71.7466667,3.44 L72.0826667,3.408 C72.1626667,3.344 72.1626667,3.072 72.0666667,3.008 C71.5706667,3.04 71.0426667,3.056 70.6426667,3.056 C70.3226667,3.056 69.9866667,3.056 69.4426667,3.008 C69.4106667,3.744 68.9466667,4.624 68.2266667,6.08 L66.7226667,9.136 C66.3226667,9.952 65.9226667,10.784 65.4906667,11.536 L65.4586667,11.536 C65.0746667,10.832 64.7226667,10.096 64.3546667,9.344 L62.5306667,5.648 C62.0346667,4.624 61.6346667,3.632 61.6986667,3.008 C61.1706667,3.056 60.7386667,3.056 60.3706667,3.056 C59.9706667,3.056 59.5866667,3.04 59.1066667,3.008 C58.9786667,3.072 58.9626667,3.312 59.0426667,3.408 L59.2986667,3.44 C60.2746667,3.568 60.4026667,3.808 60.3706667,4.816 C60.3386667,5.696 60.2746667,7.056 60.1946667,8.384 C60.0986667,9.968 60.0186667,10.848 59.9226667,11.904 C59.8266667,13.024 59.6026667,13.12 58.9306667,13.216 L58.5786667,13.264 C58.4826667,13.344 58.5146667,13.584 58.6106667,13.664 C59.1546667,13.632 59.7306667,13.616 60.2426667,13.616 C60.8506667,13.616 61.4746667,13.632 62.0186667,13.664 C62.1306667,13.616 62.1466667,13.36 62.0346667,13.264 L61.4266667,13.216 C60.8026667,13.168 60.7066667,12.912 60.7066667,11.728 C60.7066667,10.368 60.7706667,8.944 60.8186667,7.968 C60.8666667,7.04 60.9146667,6.112 60.9786667,5.12 L61.0106667,5.12 C61.3626667,5.856 61.6986667,6.688 62.0346667,7.424 L63.4746667,10.512 C63.8426667,11.296 64.6106667,12.864 64.8826667,13.712 C64.9146667,13.76 64.9946667,13.776 65.0266667,13.776 Z M89.8426667,13.744 C91.0746667,13.744 92.3866667,13.536 93.4266667,12.976 C95.2506667,11.984 96.2266667,10.24 96.2266667,8.208 C96.2266667,6.096 95.1386667,4.272 92.9786667,3.488 C91.9386667,3.104 90.8026667,3.008 89.4586667,3.008 C88.0986667,3.008 86.8026667,3.056 85.4426667,3.136 C85.2826667,3.2 85.2986667,3.456 85.4266667,3.536 L85.7786667,3.584 C86.4506667,3.68 86.5306667,4.016 86.5306667,5.136 L86.5306667,11.216 C86.5306667,12.896 86.4986667,13.088 85.5706667,13.216 L85.2026667,13.264 C85.1066667,13.36 85.1386667,13.616 85.2346667,13.664 C85.9866667,13.632 86.5626667,13.616 87.2346667,13.616 C87.7946667,13.616 88.8186667,13.744 89.8426667,13.744 Z M90.1306667,13.248 C89.1226667,13.248 88.5146667,13.088 88.1626667,12.592 C87.8906667,12.208 87.8426667,11.696 87.8426667,10.848 L87.8426667,4.944 C87.8426667,4.224 87.8746667,3.824 88.0026667,3.728 C88.1306667,3.632 88.6426667,3.504 89.5866667,3.504 C93.7786667,3.504 94.6266667,6.48 94.6266667,8.24 C94.6266667,11.216 93.2346667,13.248 90.1306667,13.248 Z M111.037333,13.664 C111.117333,13.6 111.149333,13.344 111.037333,13.264 L110.605333,13.216 C109.917333,13.136 109.709333,12.896 109.245333,11.52 L107.053333,5.088 C106.813333,4.384 106.557333,3.648 106.349333,2.944 C106.317333,2.832 106.205333,2.8 106.109333,2.8 C105.933333,3.008 105.661333,3.296 105.277333,3.408 C105.325333,3.664 105.229333,3.968 105.005333,4.544 L103.373333,8.864 C102.701333,10.656 102.253333,11.696 101.965333,12.432 C101.741333,13.008 101.389333,13.184 101.005333,13.216 L100.477333,13.264 C100.381333,13.344 100.413333,13.6 100.509333,13.664 L101.084565,13.640192 C101.394453,13.62752 101.728533,13.616 102.045333,13.616 C102.797333,13.632 103.293333,13.632 103.709333,13.664 C103.853333,13.6 103.853333,13.344 103.741333,13.264 L103.213333,13.216 C102.829333,13.184 102.749333,13.088 102.749333,12.896 C102.749333,12.72 102.861333,12.288 103.101333,11.568 L103.661333,9.888 C103.773333,9.552 103.869333,9.504 104.269333,9.504 L106.685333,9.504 C107.165333,9.504 107.229333,9.552 107.341333,9.904 L108.045333,12.08 C108.173333,12.464 108.253333,12.752 108.253333,12.928 C108.253333,13.088 108.029333,13.184 107.693333,13.216 L107.229333,13.264 C107.117333,13.344 107.133333,13.6 107.261333,13.664 C107.725333,13.648 108.333333,13.616 109.101333,13.616 C109.821333,13.616 110.381333,13.632 111.037333,13.664 Z M106.477333,8.864 L104.509333,8.864 C104.061333,8.864 104.045333,8.848 104.173333,8.48 L105.181333,5.696 C105.357333,5.216 105.517333,4.832 105.565333,4.752 L105.597333,4.752 C105.693333,4.944 105.837333,5.376 105.965333,5.76 L106.829333,8.368 C106.973333,8.8 106.941333,8.864 106.477333,8.864 Z M119.101333,13.872 C121.181333,13.872 122.509333,12.672 122.509333,10.912 C122.509333,9.392 121.517333,8.464 120.509333,7.84 L119.229333,7.04 C118.637333,6.672 117.869333,6 117.869333,5.072 C117.869333,4.336 118.205333,3.296 119.773333,3.296 C121.309333,3.296 121.741333,4.336 121.949333,5.104 C122.029333,5.2 122.285333,5.152 122.349333,5.056 C122.349333,4.384 122.205333,3.488 122.061333,3.104 C121.933333,3.104 121.709333,3.072 121.501333,3.008 C121.085333,2.896 120.509333,2.8 120.013333,2.8 C117.933333,2.8 116.749333,4.032 116.749333,5.552 C116.749333,6.864 117.677333,7.776 118.477333,8.304 L119.997333,9.296 C121.165333,10.048 121.309333,10.832 121.309333,11.536 C121.309333,12.496 120.653333,13.376 119.309333,13.376 C117.453333,13.376 116.797333,11.808 116.557333,10.992 C116.493333,10.896 116.253333,10.928 116.173333,11.04 C116.205333,11.792 116.413333,12.928 116.605333,13.28 C116.909333,13.456 117.757333,13.872 119.101333,13.872 Z M140.434667,13.664 C140.530667,13.616 140.562667,13.328 140.466667,13.264 L140.082667,13.216 C139.191787,13.10848 139.12666,12.9124864 139.122876,11.4106225 L139.122667,5.456 C139.122667,3.776 139.154667,3.536 140.082667,3.44 L140.418667,3.408 C140.514667,3.344 140.482667,3.056 140.386667,3.008 C139.666667,3.04 139.122667,3.056 138.498667,3.056 C137.842667,3.056 137.298667,3.04 136.562667,3.008 C136.466667,3.056 136.434667,3.344 136.530667,3.408 L136.834667,3.44 C137.740907,3.53216 137.806647,3.7570304 137.810457,5.26122906 L137.810667,7.296 C137.810667,7.761 137.782542,7.804125 137.146214,7.80769922 L132.434667,7.808 C131.666667,7.808 131.634667,7.792 131.634667,7.296 L131.634667,5.456 C131.634667,3.776 131.666667,3.536 132.594667,3.44 L132.898667,3.408 C132.994667,3.344 132.962667,3.056 132.866667,3.008 C132.178667,3.04 131.634667,3.056 131.010667,3.056 C130.322667,3.056 129.778667,3.024 128.994667,3.008 C128.898667,3.056 128.866667,3.344 128.962667,3.408 L129.378667,3.44 C130.176,3.50133333 130.312083,3.75369444 130.322039,5.25324653 L130.322667,11.216 C130.322667,12.896 130.290667,13.056 129.394667,13.216 L129.122667,13.264 C129.026667,13.36 129.058667,13.616 129.154667,13.664 C129.778667,13.648 130.322667,13.616 131.010667,13.616 C131.634667,13.616 132.178667,13.632 133.042667,13.664 C133.138667,13.616 133.170667,13.328 133.074667,13.264 L132.610667,13.216 C131.714667,13.12 131.634667,12.896 131.634667,11.216 L131.634667,8.96 C131.634667,8.48 131.666667,8.448 132.434667,8.448 L137.010667,8.448 C137.730667,8.448 137.803792,8.476125 137.81012,8.87514844 L137.810167,11.5907942 C137.80442,12.9216 137.732587,13.0688 136.834667,13.216 L136.530667,13.264 C136.434667,13.36 136.466667,13.616 136.562667,13.664 C137.266667,13.632 137.842667,13.616 138.498667,13.616 C139.122667,13.616 139.666667,13.632 140.434667,13.664 Z" id="EMDASH" fill="#4A4A4A" fill-rule="nonzero"></path>
            <g id="icon_inspiration" fill="#383838">
                <circle id="Oval" cx="1" cy="1" r="1"></circle>
                <circle id="Oval-Copy-3" cx="8" cy="1" r="1"></circle>
                <circle id="Oval-Copy-6" cx="15" cy="1" r="1"></circle>
                <circle id="Oval-Copy" cx="1" cy="8" r="1"></circle>
                <circle id="Oval-Copy-4" cx="8" cy="8" r="1"></circle>
                <circle id="Oval-Copy-7" cx="15" cy="8" r="1"></circle>
                <circle id="Oval-Copy-2" cx="1" cy="15" r="1"></circle>
                <circle id="Oval-Copy-5" cx="8" cy="15" r="1"></circle>
                <circle id="Oval-Copy-8" cx="15" cy="15" r="1"></circle>
            </g>
        </g>
    </g>
</svg>