<svg width="355px" height="33px" viewBox="0 0 355 33" version="1.1" xmlns="http://www.w3.org/2000/svg">
  <title>
    thanksforstoppingby.
  </title>
  <g stroke="none" stroke-width="1" fill="none" fill-rule="evenodd">
    <g transform="translate(-331 -927)">
      <g transform="translate(0 799)">
        <rect fill="#2E3448" x="0" y="0" width="1024" height="303"/>
        <path d="M332.813833 152.462c1.386 0 4.488-2.013 6.336-4.752.066-.396-.132-.594-.462-.594-1.089 1.254-3.267 2.97-3.762 2.97-.264 0-.429-.198-.231-.825l2.97-8.679h3.597c.429-.231.627-.891.396-1.221h-3.597l.957-3.234c-.264-.33-.924-.396-1.254-.198l-1.848 3.267-2.64.462c-.33.132-.429.594-.363.924h2.574l-3.102 9.108c-.33.99-.462 1.452-.462 1.881 0 .396.429.891.891.891zm19.338667 0c.429 0 1.32-.198 2.409-1.287.858-.858 1.518-1.584 2.145-2.706 1.188-2.112 2.574-5.445 2.574-7.722 0-1.155-.528-2.211-1.98-2.211-.891 0-1.947.429-3.135 1.287-1.188.858-2.904 2.178-5.214 5.445l-.066-.066 3.399-9.867c.66-1.881 1.716-4.884 2.376-6.732l-.132-.198c-1.155.066-3.333.528-3.861.759-.165.132-.165.264-.099.429l.693.462c.528.363.363.825-.363 3.003l-6.27 18.546c-.264.759.594.858.957.858.297 0 .462-.132.594-.396.858-1.683 2.508-4.884 3.993-6.864 1.716-2.244 2.805-3.333 4.191-4.389.627-.495 1.32-.891 1.782-.891.462 0 .693.363.693.99 0 1.815-1.485 6.369-2.376 8.514-.495 1.155-.825 1.65-1.32 1.65-.231 0-.594-.231-.858-.429-.165-.132-.33-.198-.462-.198-.429 0-.891.495-.891 1.056 0 .264.132.957 1.221.957zm20.097667 0c1.815 0 4.158-1.848 5.544-3.696 0-.264-.231-.429-.462-.429-1.881 1.65-2.838 2.211-3.399 2.211-.264 0-.429-.198-.231-.759.384-1.092 1.008-2.751273 1.670479-4.47957l.24984-.650374c1.087044-2.823874 2.209181-5.665556 2.501681-6.387056-.198-.429-1.056-.759-1.617-.495l-.924 2.112c-.165-.33-.528-.627-.66-.693-.198-.099-.429-.198-.792-.198-.858 0-1.683.231-2.97.957-1.353.759-2.772 2.079-4.356 4.257-2.178 3.003-2.904 5.643-2.904 6.402 0 .924.528 1.848 1.452 1.848 1.551 0 4.917-2.277 7.26-5.181l.099.033-1.089 2.97c-.264.759-.33 1.056-.33 1.287 0 .264.198.891.957.891zm-5.115-1.749c-.297 0-.495-.231-.495-.627 0-2.343 2.013-6.666 4.125-8.547 1.023-.924 1.551-1.287 2.343-1.287.858 0 1.419.561 1.65 1.188-.528 1.947-1.914 4.785-4.422 7.128-1.881 1.716-2.871 2.145-3.201 2.145zm25.080666 1.749c1.815 0 4.422-1.584 5.676-3.696 0-.264-.066-.528-.528-.462-.957 1.155-2.541 2.244-3.102 2.244-.231 0-.198-.297-.066-.627.099-.264 2.475-5.643 3.069-7.293.264-.759.528-1.782.528-2.31 0-1.089-.561-1.782-1.848-1.782-2.475 0-5.742 3.63-8.085 7.194l-.099-.066 2.244-5.775c.297-.759-.066-1.353-.858-1.353-1.65 0-3.663 1.353-4.917 3.069-.033.264.132.495.396.495 1.089-.957 2.244-1.65 3.003-1.65.264 0 .264.33.099.759-.165.462-3.663 9.966-3.828 10.395-.297.759.594.858.957.858.297 0 .429-.099.594-.396 1.947-3.63 3.3-6.204 5.049-8.382 1.815-2.277 3.762-3.927 4.554-3.927.495 0 .528.396.528.792 0 .66-.429 1.815-.693 2.409-.759 1.65-1.98 4.884-2.673 6.501-.693 1.65-.792 1.881-.792 2.178 0 .396.495.825.792.825zm20.394667 0c.528 0 2.178-.66 3.333-3.135 0-.264-.132-.396-.429-.396-.924 1.122-1.551 1.551-1.98 1.551-.33 0-.66-.363-1.056-1.089-.363-.693-.957-2.145-1.221-3.102-.066-.198-.132-.495.099-.627 2.112-.363 3.729-1.485 5.28-2.904 1.221-1.122 1.353-2.013 1.353-2.409 0-.693-.462-1.815-2.376-1.815-1.419 0-2.64.594-3.564 1.254-1.32.99-2.409 2.112-3.366 3.399h-.066l3.399-9.768c.99-2.805 1.353-3.927 1.617-4.851l-.198-.165c-1.419.264-3.036.726-4.026 1.188-.165.165-.132.363.066.495l.594.297c.561.264.528.693-.231 3.003l-6.039 18.216c-.264.759.693.858 1.056.858.297 0 .429-.132.561-.429l1.716-4.191c.396-.99.561-1.155 1.221-1.32.594-.132.957.231 1.221 1.089.297.891 1.122 2.805 1.518 3.531.528.924.924 1.32 1.518 1.32zm-4.455-7.227c.429-.957 1.815-2.574 3.036-3.597 1.122-.957 2.343-1.683 3.201-1.683.759 0 1.056.462 1.056.858 0 .693-.726 1.848-2.112 2.772-2.31 1.518-4.158 2.079-4.851 2.145-.429.066-.462-.165-.33-.495zm15.279667 7.227c1.254 0 2.475-.429 3.333-1.188 1.221-1.056 1.683-2.277 1.716-3.168.066-1.452-.429-2.277-1.254-3.663-.957-1.617-1.122-2.31-1.122-3.003 0-.495.396-1.32 1.353-1.32.8866 0 1.32704.3718 1.793919.836137l.219081.219863c.198.264.396.33.627.264.264-.132.594-.495.594-1.023 0-.825-.759-1.881-1.98-1.881-.429 0-1.485.264-2.442 1.089-1.419 1.221-1.98 2.178-1.98 3.465 0 .561.297 1.683 1.155 3.069.825 1.32 1.221 2.343 1.221 2.904 0 1.056-.792 1.881-1.584 1.881-.858 0-1.848-.825-2.277-1.32-.264-.231-.627-.231-.891 0-.363.396-.495.759-.495 1.089 0 .759.759 1.749 2.013 1.749zm20.032333 8.415c1.947 0 3.465-1.32 3.96-1.782.66-.66 1.749-2.343 2.607-5.313 1.056-3.63 1.947-6.798 2.937-10.494.396-1.452.66-2.508.858-3.069h4.092c.495-.363.561-.858.33-1.221h-4.125c.891-3.135 1.551-5.478 3.069-7.689.759-1.122 1.65-1.782 2.376-1.782.825 0 1.749.594 1.848 2.409.033.231.165.528.462.528.528 0 1.419-1.023 1.419-1.881 0-1.32-1.32-2.178-2.541-2.178-1.914 0-3.63.792-5.28 2.739-1.947 2.31-2.838 4.884-3.696 7.854h-2.838c-.429.297-.561.924-.231 1.221h2.739c-1.584 5.379-2.739 11.055-4.257 16.269-.759 2.541-1.452 2.772-2.112 2.772-.726 0-1.716-.528-2.508-1.353-.198-.231-.495-.33-.759-.132-.363.264-.759.825-.759 1.485 0 .495.627 1.617 2.409 1.617zm20.262667-8.415c.891 0 2.673-.165 4.719-2.277 2.442-2.508 3.399-5.676 3.498-7.491.132-2.409-1.023-4.158-3.366-4.158-1.353 0-2.838.495-4.554 2.145-2.244 2.145-3.465 5.346-3.597 7.392-.198 2.838 1.188 4.389 3.3 4.389zm.264-.99c-.957 0-1.419-.957-1.353-2.112.099-1.749 1.386-5.676 3.3-8.25.957-1.287 1.749-1.584 2.409-1.584 1.155 0 1.353 1.155 1.32 2.178-.066 1.749-1.617 6.105-3.069 8.052-1.056 1.419-1.881 1.716-2.607 1.716zm15.477666.99c.264 0 .429-.132.561-.396 1.749-3.795 3.597-7.821 5.61-10.395.495-.66.858-.99 1.155-.99.33 0 .528.429.693 1.287.132.693.66.66 1.056.165.396-.528.693-1.485.693-1.98 0-.495-.165-1.617-1.32-1.617-.825 0-1.65.726-2.409 1.716-.858 1.089-2.475 3.729-3.465 5.577h-.165l1.419-4.158c.297-.891.891-3.135-.759-3.135-1.584 0-2.838 1.386-3.894 3.168-.033.396.198.594.528.528.594-.792 1.485-1.716 2.343-1.716.297 0 .363.33.264.693-.313054 1.13627-.772764 2.594369-1.256036 4.065129l-.224273.678586c-.825183 2.483189-1.66361 4.86642-1.918691 5.651285-.231.726.726.858 1.089.858zm26.533334 0c1.254 0 2.475-.429 3.333-1.188 1.221-1.056 1.683-2.277 1.716-3.168.066-1.452-.429-2.277-1.254-3.663-.957-1.617-1.122-2.31-1.122-3.003 0-.495.396-1.32 1.353-1.32.8866 0 1.32704.3718 1.793919.836137l.219081.219863c.198.264.396.33.627.264.264-.132.594-.495.594-1.023 0-.825-.759-1.881-1.98-1.881-.429 0-1.485.264-2.442 1.089-1.419 1.221-1.98 2.178-1.98 3.465 0 .561.297 1.683 1.155 3.069.825 1.32 1.221 2.343 1.221 2.904 0 1.056-.792 1.881-1.584 1.881-.858 0-1.848-.825-2.277-1.32-.264-.231-.627-.231-.891 0-.363.396-.495.759-.495 1.089 0 .759.759 1.749 2.013 1.749zm13.200666 0c1.386 0 4.488-2.013 6.336-4.752.066-.396-.132-.594-.462-.594-1.089 1.254-3.267 2.97-3.762 2.97-.264 0-.429-.198-.231-.825l2.97-8.679h3.597c.429-.231.627-.891.396-1.221h-3.597l.957-3.234c-.264-.33-.924-.396-1.254-.198l-1.848 3.267-2.64.462c-.33.132-.429.594-.363.924h2.574l-3.102 9.108c-.33.99-.462 1.452-.462 1.881 0 .396.429.891.891.891zm15.576667 0c.891 0 2.673-.165 4.719-2.277 2.442-2.508 3.399-5.676 3.498-7.491.132-2.409-1.023-4.158-3.366-4.158-1.353 0-2.838.495-4.554 2.145-2.244 2.145-3.465 5.346-3.597 7.392-.198 2.838 1.188 4.389 3.3 4.389zm.264-.99c-.957 0-1.419-.957-1.353-2.112.099-1.749 1.386-5.676 3.3-8.25.957-1.287 1.749-1.584 2.409-1.584 1.155 0 1.353 1.155 1.32 2.178-.066 1.749-1.617 6.105-3.069 8.052-1.056 1.419-1.881 1.716-2.607 1.716zm8.976667 9.405c2.211-.066 4.686-.198 7.194-.198.297-.132.297-.495.132-.726l-1.353-.198c-1.089-.165-1.155-.462-.264-3.003l1.353-3.894c.099-.33.264-.528.528-.594.462.132.726.198 1.023.198.132 0 2.64-.132 4.719-1.881 2.508-2.112 4.356-4.785 4.356-7.821 0-3.135-2.97-3.762-4.488-3.762-.627 0-.99.066-1.254.066l.693-2.013c-.132-.495-1.452-.825-1.881-.462l-.99 2.673c-1.617.429-2.937.99-4.092 1.815-.099.297.066.594.33.627 1.386-.693 2.145-1.023 3.333-1.353l-6.138 17.226c-.495 1.353-.627 2.112-2.475 2.442l-.726.132c-.231.198-.231.528 0 .726zm9.504-9.537c-.528 0-1.023-.429-1.221-.759-.132-.198-.165-.528-.033-.891l3.432-9.636c.231-.033.495-.066.858-.066 1.419 0 2.607.825 2.607 2.475 0 1.452-.363 3.762-1.947 6.204-1.419 2.211-3.267 2.673-3.696 2.673zm9.306666 9.537c2.211-.066 4.686-.198 7.194-.198.297-.132.297-.495.132-.726l-1.353-.198c-1.089-.165-1.155-.462-.264-3.003l1.353-3.894c.099-.33.264-.528.528-.594.462.132.726.198 1.023.198.132 0 2.64-.132 4.719-1.881 2.508-2.112 4.356-4.785 4.356-7.821 0-3.135-2.97-3.762-4.488-3.762-.627 0-.99.066-1.254.066l.693-2.013c-.132-.495-1.452-.825-1.881-.462l-.99 2.673c-1.617.429-2.937.99-4.092 1.815-.099.297.066.594.33.627 1.386-.693 2.145-1.023 3.333-1.353l-6.138 17.226c-.495 1.353-.627 2.112-2.475 2.442l-.726.132c-.231.198-.231.528 0 .726zm9.504-9.537c-.528 0-1.023-.429-1.221-.759-.132-.198-.165-.528-.033-.891l3.432-9.636c.231-.033.495-.066.858-.066 1.419 0 2.607.825 2.607 2.475 0 1.452-.363 3.762-1.947 6.204-1.419 2.211-3.267 2.673-3.696 2.673zm20.757667-16.302c.99 0 1.716-1.023 1.716-2.046 0-.726-.363-1.254-1.122-1.254-1.287 0-1.749 1.353-1.749 2.079 0 .561.297 1.221 1.155 1.221zm-5.742 17.424c2.277 0 5.676-2.97 6.171-3.927 0-.297-.165-.528-.495-.561-1.122 1.287-2.871 2.442-3.432 2.442-.264 0-.231-.396-.099-.726l3.927-9.372c.396-.957.396-1.254.198-1.452-.132-.132-.297-.33-.528-.33-1.089 0-3.63 1.221-5.445 3.3-.066.264.132.528.429.561 1.65-1.353 2.508-1.749 2.739-1.749.231 0 .231.264.066.627l-4.191 9.999c-.165.363-.066.66.132.891.165.198.363.297.528.297zm21.120667 0c1.815 0 4.422-1.584 5.676-3.696 0-.264-.066-.528-.528-.462-.957 1.155-2.541 2.244-3.102 2.244-.231 0-.198-.297-.066-.627.099-.264 2.475-5.643 3.069-7.293.264-.759.528-1.782.528-2.31 0-1.089-.561-1.782-1.848-1.782-2.475 0-5.742 3.63-8.085 7.194l-.099-.066 2.244-5.775c.297-.759-.066-1.353-.858-1.353-1.65 0-3.663 1.353-4.917 3.069-.033.264.132.495.396.495 1.089-.957 2.244-1.65 3.003-1.65.264 0 .264.33.099.759-.075625.21175-.851412 2.322948-1.685545 4.589256l-.228455.620619c-.91575 2.487375-1.8315 4.970625-1.914 5.185125-.297.759.594.858.957.858.297 0 .429-.099.594-.396 1.947-3.63 3.3-6.204 5.049-8.382 1.815-2.277 3.762-3.927 4.554-3.927.495 0 .528.396.528.792 0 .66-.429 1.815-.693 2.409-.759 1.65-1.98 4.884-2.673 6.501-.693 1.65-.792 1.881-.792 2.178 0 .396.495.825.792.825zm13.728666 8.415c5.379 0 8.052-2.079 8.052-3.927 0-1.056-.561-2.079-2.475-3.201-1.188-.726-2.475-1.452-3.234-1.98-.858-.561-1.089-1.155-1.089-1.551 0-.495.363-.957.726-1.155.726-.198 1.98-.627 2.343-.858 2.277-1.419 4.191-3.927 4.191-6.6 0-.462-.165-.99-.231-1.254-.033-.099.132-.198.297-.198.231 0 .924.099 1.221.198.297.066.759.165 1.089.165.33 0 .726-.264.726-1.023 0-.495-.231-.825-.693-.825-.231 0-.858.099-1.485.264-.627.165-1.287.198-1.584.198-.132 0-.429-.165-.792-.297-.363-.132-.726-.297-1.056-.297-1.749 0-3.3.627-4.884 1.98-1.65 1.452-2.673 3.696-2.673 5.544 0 2.211 1.782 2.805 2.409 2.97-.462.594-1.485 1.947-1.485 2.541 0 .462.198.957 1.056 1.518-1.782.561-5.643 2.145-5.643 4.653 0 2.211 2.805 3.135 5.214 3.135zm1.419-12.804c-.528 0-.99-.462-.99-1.155 0-1.683 1.683-4.587 2.97-6.072 1.023-1.122 1.65-1.353 2.211-1.353.495 0 .99.429.99 1.122 0 1.056-1.155 3.993-3.003 6.171-.924 1.089-1.716 1.287-2.178 1.287zm.099 11.715c-2.244 0-4.455-.99-4.455-2.541 0-.759.363-1.485 1.254-2.145.957-.693 2.244-1.32 3.069-1.221.528.066 1.683.726 3.069 1.65 1.056.726 1.419 1.452 1.419 2.013 0 1.584-2.838 2.244-4.356 2.244zm28.843334-7.326c1.155 0 3.597-.594 6.303-3.201 2.673-2.607 4.257-5.478 4.257-7.755 0-1.683-.891-2.97-2.838-2.97-2.475 0-4.686 2.244-6.996 5.742h-.066l4.29-11.286c.495-1.287.99-2.541 1.683-4.389l-.132-.198c-1.518-.033-3.333.396-3.96.627-.132.132-.165.33-.099.462l.759.528c.462.33.363.891-.33 2.739l-3.828 10.164c-.957 2.574-1.683 4.95-1.683 6.501 0 1.881.858 3.036 2.64 3.036zm.726-1.023c-.561 0-1.155-.429-1.155-1.716 0-1.518 1.023-4.224 3.102-6.6 2.046-2.343 3.663-3.465 4.554-3.465.594 0 1.155.297 1.155 1.188 0 1.881-2.442 6.072-4.488 8.382-1.419 1.584-2.673 2.211-3.168 2.211zm11.979666 9.438c1.056 0 2.706-.528 5.148-3.333 2.64-3.003 3.828-5.181 5.445-7.92 2.97-4.983 3.861-9.24 3.828-10.065 0-.363-.099-.528-.297-.66-.264-.165-.693-.297-.924-.297-.231 0-.726.066-.792 1.023-.033.858-.528 4.191-1.221 6.105-.726 2.013-1.683 4.059-2.772 5.676h-.132c.462-2.739.528-5.148.495-7.26-.066-2.31-.33-5.61-2.013-5.61-1.617 0-3.069 2.046-3.762 4.257.066.297.264.528.627.429.693-1.386 1.254-2.508 1.914-2.508.627 0 1.188 1.287 1.254 4.95.033 2.805-.198 5.841-.66 7.524-.627 2.178-2.079 4.257-2.904 4.95-.792.66-1.386.924-1.815.924-.528 0-.825-.429-.924-.594-.231-.33-.561-.528-.891-.528-.726 0-1.32.594-1.32 1.419 0 .825.66 1.518 1.716 1.518zm18.282667-8.415c.957 0 1.881-.792 1.881-2.112 0-.759-.495-1.485-1.452-1.485s-1.881.858-1.881 2.046c0 .957.528 1.551 1.452 1.551z" fill="#FFFDFF" fill-rule="nonzero"/>
      </g>
    </g>
  </g>
</svg>
